<mxfile host="app.diagrams.net" agent="Mozilla/5.0 (Windows NT 10.0; Win64; x64) AppleWebKit/537.36 (KHTML, like Gecko) Chrome/138.0.0.0 Safari/537.36" version="28.0.6">
  <diagram id="C5RBs43oDa-KdzZeNtuy" name="Page-1">
    <mxGraphModel dx="2564" dy="1097" grid="1" gridSize="10" guides="1" tooltips="1" connect="1" arrows="1" fold="1" page="1" pageScale="1" pageWidth="827" pageHeight="1169" math="0" shadow="0">
      <root>
        <mxCell id="WIyWlLk6GJQsqaUBKTNV-0" />
        <mxCell id="WIyWlLk6GJQsqaUBKTNV-1" parent="WIyWlLk6GJQsqaUBKTNV-0" />
        <mxCell id="M7CGMbNuYNeq0SnUNNgH-6" value="ทบทวนสัญลักษณ์" style="swimlane;fontFamily=Sarabun;fontSource=https%3A%2F%2Ffonts.googleapis.com%2Fcss%3Ffamily%3DSarabun;" parent="WIyWlLk6GJQsqaUBKTNV-1" vertex="1">
          <mxGeometry x="-720" y="20" width="640" height="290" as="geometry" />
        </mxCell>
        <mxCell id="M7CGMbNuYNeq0SnUNNgH-2" value="&lt;font data-font-src=&quot;https://fonts.googleapis.com/css?family=Sarabun&quot; face=&quot;Sarabun&quot;&gt;เริ่มต้น&lt;/font&gt;" style="ellipse;whiteSpace=wrap;html=1;" parent="M7CGMbNuYNeq0SnUNNgH-6" vertex="1">
          <mxGeometry x="20" y="40" width="130" height="30" as="geometry" />
        </mxCell>
        <mxCell id="M7CGMbNuYNeq0SnUNNgH-5" value="" style="endArrow=classic;html=1;rounded=0;" parent="M7CGMbNuYNeq0SnUNNgH-6" edge="1">
          <mxGeometry width="50" height="50" relative="1" as="geometry">
            <mxPoint x="84.5" y="70" as="sourcePoint" />
            <mxPoint x="84.5" y="120" as="targetPoint" />
          </mxGeometry>
        </mxCell>
        <mxCell id="M7CGMbNuYNeq0SnUNNgH-3" value="&lt;font face=&quot;Sarabun&quot;&gt;สิ้นสุด&lt;/font&gt;" style="ellipse;whiteSpace=wrap;html=1;" parent="M7CGMbNuYNeq0SnUNNgH-6" vertex="1">
          <mxGeometry x="150" y="90" width="130" height="30" as="geometry" />
        </mxCell>
        <mxCell id="M7CGMbNuYNeq0SnUNNgH-4" value="" style="endArrow=classic;html=1;rounded=0;" parent="M7CGMbNuYNeq0SnUNNgH-6" edge="1">
          <mxGeometry width="50" height="50" relative="1" as="geometry">
            <mxPoint x="214.5" y="40" as="sourcePoint" />
            <mxPoint x="214.5" y="90" as="targetPoint" />
          </mxGeometry>
        </mxCell>
        <mxCell id="mvioNwK95yMqdUQ73LqQ-0" value="กระบวนการ" style="rounded=0;whiteSpace=wrap;html=1;fontFamily=Sarabun;fontSource=https%3A%2F%2Ffonts.googleapis.com%2Fcss%3Ffamily%3DSarabun;" parent="M7CGMbNuYNeq0SnUNNgH-6" vertex="1">
          <mxGeometry x="320" y="70" width="120" height="30" as="geometry" />
        </mxCell>
        <mxCell id="mvioNwK95yMqdUQ73LqQ-1" value="" style="endArrow=classic;html=1;rounded=0;" parent="M7CGMbNuYNeq0SnUNNgH-6" edge="1">
          <mxGeometry width="50" height="50" relative="1" as="geometry">
            <mxPoint x="379" y="40" as="sourcePoint" />
            <mxPoint x="379.5" y="70" as="targetPoint" />
          </mxGeometry>
        </mxCell>
        <mxCell id="mvioNwK95yMqdUQ73LqQ-2" value="" style="endArrow=classic;html=1;rounded=0;" parent="M7CGMbNuYNeq0SnUNNgH-6" edge="1">
          <mxGeometry width="50" height="50" relative="1" as="geometry">
            <mxPoint x="379.75" y="100" as="sourcePoint" />
            <mxPoint x="380.25" y="130" as="targetPoint" />
          </mxGeometry>
        </mxCell>
        <mxCell id="mvioNwK95yMqdUQ73LqQ-3" value="ประโยคเงื่อนไข" style="rhombus;whiteSpace=wrap;html=1;fontFamily=Sarabun;fontSource=https%3A%2F%2Ffonts.googleapis.com%2Fcss%3Ffamily%3DSarabun;" parent="M7CGMbNuYNeq0SnUNNgH-6" vertex="1">
          <mxGeometry x="490" y="60" width="100" height="60" as="geometry" />
        </mxCell>
        <mxCell id="mvioNwK95yMqdUQ73LqQ-4" value="" style="endArrow=classic;html=1;rounded=0;" parent="M7CGMbNuYNeq0SnUNNgH-6" edge="1">
          <mxGeometry width="50" height="50" relative="1" as="geometry">
            <mxPoint x="539.71" y="30" as="sourcePoint" />
            <mxPoint x="540.21" y="60" as="targetPoint" />
          </mxGeometry>
        </mxCell>
        <mxCell id="mvioNwK95yMqdUQ73LqQ-5" value="" style="endArrow=classic;html=1;rounded=0;" parent="M7CGMbNuYNeq0SnUNNgH-6" edge="1">
          <mxGeometry width="50" height="50" relative="1" as="geometry">
            <mxPoint x="539.71" y="120" as="sourcePoint" />
            <mxPoint x="540" y="175" as="targetPoint" />
          </mxGeometry>
        </mxCell>
        <mxCell id="mvioNwK95yMqdUQ73LqQ-7" value="จริง" style="edgeLabel;html=1;align=center;verticalAlign=middle;resizable=0;points=[];fontFamily=Sarabun;fontSource=https%3A%2F%2Ffonts.googleapis.com%2Fcss%3Ffamily%3DSarabun;" parent="mvioNwK95yMqdUQ73LqQ-5" vertex="1" connectable="0">
          <mxGeometry x="-0.4142" y="-1" relative="1" as="geometry">
            <mxPoint as="offset" />
          </mxGeometry>
        </mxCell>
        <mxCell id="mvioNwK95yMqdUQ73LqQ-6" value="" style="endArrow=classic;html=1;rounded=0;exitX=1;exitY=0.5;exitDx=0;exitDy=0;" parent="M7CGMbNuYNeq0SnUNNgH-6" source="mvioNwK95yMqdUQ73LqQ-3" edge="1">
          <mxGeometry width="50" height="50" relative="1" as="geometry">
            <mxPoint x="620" y="95" as="sourcePoint" />
            <mxPoint x="610" y="175" as="targetPoint" />
            <Array as="points">
              <mxPoint x="610" y="90" />
            </Array>
          </mxGeometry>
        </mxCell>
        <mxCell id="mvioNwK95yMqdUQ73LqQ-8" value="&lt;font data-font-src=&quot;https://fonts.googleapis.com/css?family=Sarabun&quot; face=&quot;Sarabun&quot;&gt;เท็จ&lt;/font&gt;" style="edgeLabel;html=1;align=center;verticalAlign=middle;resizable=0;points=[];" parent="mvioNwK95yMqdUQ73LqQ-6" vertex="1" connectable="0">
          <mxGeometry x="-0.0019" y="-2" relative="1" as="geometry">
            <mxPoint as="offset" />
          </mxGeometry>
        </mxCell>
        <mxCell id="mvioNwK95yMqdUQ73LqQ-9" value="&lt;font data-font-src=&quot;https://fonts.googleapis.com/css?family=Sarabun&quot; face=&quot;Sarabun&quot;&gt;ฟังก์ชัน/โมดูล&lt;/font&gt;" style="shape=process;whiteSpace=wrap;html=1;backgroundOutline=1;" parent="M7CGMbNuYNeq0SnUNNgH-6" vertex="1">
          <mxGeometry x="25" y="180" width="120" height="30" as="geometry" />
        </mxCell>
        <mxCell id="mvioNwK95yMqdUQ73LqQ-11" value="" style="endArrow=classic;html=1;rounded=0;" parent="M7CGMbNuYNeq0SnUNNgH-6" edge="1">
          <mxGeometry width="50" height="50" relative="1" as="geometry">
            <mxPoint x="84.70999999999998" y="150" as="sourcePoint" />
            <mxPoint x="85.20999999999998" y="180" as="targetPoint" />
          </mxGeometry>
        </mxCell>
        <mxCell id="mvioNwK95yMqdUQ73LqQ-12" value="" style="endArrow=classic;html=1;rounded=0;" parent="M7CGMbNuYNeq0SnUNNgH-6" edge="1">
          <mxGeometry width="50" height="50" relative="1" as="geometry">
            <mxPoint x="84.70999999999998" y="210" as="sourcePoint" />
            <mxPoint x="85.20999999999998" y="240" as="targetPoint" />
          </mxGeometry>
        </mxCell>
        <mxCell id="mvioNwK95yMqdUQ73LqQ-13" value="" style="strokeWidth=2;html=1;shape=mxgraph.flowchart.start_2;whiteSpace=wrap;" parent="M7CGMbNuYNeq0SnUNNgH-6" vertex="1">
          <mxGeometry x="205" y="185" width="20" height="20" as="geometry" />
        </mxCell>
        <mxCell id="mvioNwK95yMqdUQ73LqQ-16" value="" style="endArrow=classic;html=1;rounded=0;" parent="M7CGMbNuYNeq0SnUNNgH-6" edge="1">
          <mxGeometry width="50" height="50" relative="1" as="geometry">
            <mxPoint x="214.70999999999998" y="155" as="sourcePoint" />
            <mxPoint x="215.20999999999998" y="185" as="targetPoint" />
          </mxGeometry>
        </mxCell>
        <mxCell id="mvioNwK95yMqdUQ73LqQ-17" value="" style="endArrow=classic;html=1;rounded=0;entryX=0;entryY=0.5;entryDx=0;entryDy=0;entryPerimeter=0;" parent="M7CGMbNuYNeq0SnUNNgH-6" target="mvioNwK95yMqdUQ73LqQ-13" edge="1">
          <mxGeometry width="50" height="50" relative="1" as="geometry">
            <mxPoint x="189.99999999999997" y="155" as="sourcePoint" />
            <mxPoint x="190.49999999999997" y="185" as="targetPoint" />
            <Array as="points">
              <mxPoint x="190" y="180" />
            </Array>
          </mxGeometry>
        </mxCell>
        <mxCell id="mvioNwK95yMqdUQ73LqQ-18" value="" style="endArrow=classic;html=1;rounded=0;entryX=1;entryY=0.5;entryDx=0;entryDy=0;entryPerimeter=0;" parent="M7CGMbNuYNeq0SnUNNgH-6" target="mvioNwK95yMqdUQ73LqQ-13" edge="1">
          <mxGeometry width="50" height="50" relative="1" as="geometry">
            <mxPoint x="239.99999999999997" y="155" as="sourcePoint" />
            <mxPoint x="240.49999999999997" y="185" as="targetPoint" />
            <Array as="points">
              <mxPoint x="240" y="180" />
            </Array>
          </mxGeometry>
        </mxCell>
        <mxCell id="mvioNwK95yMqdUQ73LqQ-19" value="" style="endArrow=classic;html=1;rounded=0;" parent="M7CGMbNuYNeq0SnUNNgH-6" edge="1">
          <mxGeometry width="50" height="50" relative="1" as="geometry">
            <mxPoint x="214.70999999999998" y="205" as="sourcePoint" />
            <mxPoint x="215.20999999999998" y="235" as="targetPoint" />
          </mxGeometry>
        </mxCell>
        <mxCell id="mvioNwK95yMqdUQ73LqQ-20" value="&lt;font data-font-src=&quot;https://fonts.googleapis.com/css?family=Sarabun&quot; face=&quot;Sarabun&quot;&gt;ตัวเชื่อม&lt;/font&gt;" style="text;html=1;align=center;verticalAlign=middle;resizable=0;points=[];autosize=1;strokeColor=none;fillColor=none;" parent="M7CGMbNuYNeq0SnUNNgH-6" vertex="1">
          <mxGeometry x="220" y="190" width="60" height="30" as="geometry" />
        </mxCell>
        <mxCell id="mvioNwK95yMqdUQ73LqQ-25" value="" style="endArrow=classic;html=1;rounded=0;" parent="M7CGMbNuYNeq0SnUNNgH-6" edge="1">
          <mxGeometry width="50" height="50" relative="1" as="geometry">
            <mxPoint x="353.71" y="165" as="sourcePoint" />
            <mxPoint x="354.21" y="195" as="targetPoint" />
          </mxGeometry>
        </mxCell>
        <mxCell id="mvioNwK95yMqdUQ73LqQ-21" value="" style="verticalLabelPosition=bottom;verticalAlign=top;html=1;shape=offPageConnector;rounded=0;size=0.5;" parent="M7CGMbNuYNeq0SnUNNgH-6" vertex="1">
          <mxGeometry x="339" y="195" width="30" height="30" as="geometry" />
        </mxCell>
        <mxCell id="mvioNwK95yMqdUQ73LqQ-26" value="" style="endArrow=classic;html=1;rounded=0;" parent="M7CGMbNuYNeq0SnUNNgH-6" edge="1">
          <mxGeometry width="50" height="50" relative="1" as="geometry">
            <mxPoint x="405.71" y="195" as="sourcePoint" />
            <mxPoint x="406.21" y="225" as="targetPoint" />
          </mxGeometry>
        </mxCell>
        <mxCell id="mvioNwK95yMqdUQ73LqQ-27" value="" style="verticalLabelPosition=bottom;verticalAlign=top;html=1;shape=offPageConnector;rounded=0;size=0.5;" parent="M7CGMbNuYNeq0SnUNNgH-6" vertex="1">
          <mxGeometry x="391" y="165" width="30" height="30" as="geometry" />
        </mxCell>
        <mxCell id="mvioNwK95yMqdUQ73LqQ-28" value="หน้าต่อไป" style="text;html=1;align=center;verticalAlign=middle;resizable=0;points=[];autosize=1;strokeColor=none;fillColor=none;fontFamily=Sarabun;fontSource=https%3A%2F%2Ffonts.googleapis.com%2Fcss%3Ffamily%3DSarabun;" parent="M7CGMbNuYNeq0SnUNNgH-6" vertex="1">
          <mxGeometry x="345" y="220" width="70" height="30" as="geometry" />
        </mxCell>
        <mxCell id="mvioNwK95yMqdUQ73LqQ-29" value="ก" style="text;html=1;align=center;verticalAlign=middle;resizable=0;points=[];autosize=1;strokeColor=none;fillColor=none;fontFamily=Sarabun;fontSource=https%3A%2F%2Ffonts.googleapis.com%2Fcss%3Ffamily%3DSarabun;" parent="M7CGMbNuYNeq0SnUNNgH-6" vertex="1">
          <mxGeometry x="339" y="190" width="30" height="30" as="geometry" />
        </mxCell>
        <mxCell id="mvioNwK95yMqdUQ73LqQ-30" value="ก" style="text;html=1;align=center;verticalAlign=middle;resizable=0;points=[];autosize=1;strokeColor=none;fillColor=none;fontFamily=Sarabun;fontSource=https%3A%2F%2Ffonts.googleapis.com%2Fcss%3Ffamily%3DSarabun;" parent="M7CGMbNuYNeq0SnUNNgH-6" vertex="1">
          <mxGeometry x="391" y="160" width="30" height="30" as="geometry" />
        </mxCell>
        <mxCell id="mvioNwK95yMqdUQ73LqQ-32" value="แสดงผล/รับค่า" style="shape=parallelogram;perimeter=parallelogramPerimeter;whiteSpace=wrap;html=1;fixedSize=1;fontFamily=Sarabun;fontSource=https%3A%2F%2Ffonts.googleapis.com%2Fcss%3Ffamily%3DSarabun;" parent="M7CGMbNuYNeq0SnUNNgH-6" vertex="1">
          <mxGeometry x="450" y="210" width="120" height="30" as="geometry" />
        </mxCell>
        <mxCell id="mvioNwK95yMqdUQ73LqQ-33" value="" style="endArrow=classic;html=1;rounded=0;" parent="M7CGMbNuYNeq0SnUNNgH-6" edge="1">
          <mxGeometry width="50" height="50" relative="1" as="geometry">
            <mxPoint x="509.71" y="180" as="sourcePoint" />
            <mxPoint x="510.21" y="210" as="targetPoint" />
          </mxGeometry>
        </mxCell>
        <mxCell id="mvioNwK95yMqdUQ73LqQ-34" value="" style="endArrow=classic;html=1;rounded=0;" parent="M7CGMbNuYNeq0SnUNNgH-6" edge="1">
          <mxGeometry width="50" height="50" relative="1" as="geometry">
            <mxPoint x="509.71" y="240" as="sourcePoint" />
            <mxPoint x="510.21" y="270" as="targetPoint" />
          </mxGeometry>
        </mxCell>
        <mxCell id="mvioNwK95yMqdUQ73LqQ-70" value="&lt;font data-font-src=&quot;https://fonts.googleapis.com/css?family=Sarabun&quot; face=&quot;Sarabun&quot;&gt;โจทย์ปัญหา&lt;/font&gt;" style="swimlane;whiteSpace=wrap;html=1;" parent="WIyWlLk6GJQsqaUBKTNV-1" vertex="1">
          <mxGeometry x="-720" y="320" width="640" height="824" as="geometry" />
        </mxCell>
        <mxCell id="mvioNwK95yMqdUQ73LqQ-71" value="&lt;font data-font-src=&quot;https://fonts.googleapis.com/css?family=Sarabun&quot; face=&quot;Sarabun&quot; style=&quot;font-size: 14px;&quot;&gt;จงเขียน Flowchart เพื่อแสดงขั้นตอนการทำงาน ของเครื่องขายน้ำอัตโนมัติที่ชื่อว่า &quot;ตะพาบลอย&quot;&lt;br&gt;โดยจะต้องมีสินค้าดังนี้&lt;br&gt;&lt;u&gt;ประเภทน้ำ&lt;span style=&quot;white-space: pre;&quot;&gt;&#x9;&lt;/span&gt;&lt;span style=&quot;white-space: pre;&quot;&gt;&#x9;&lt;/span&gt;&lt;span style=&quot;white-space: pre;&quot;&gt;&#x9;&lt;/span&gt;&lt;span style=&quot;white-space: pre;&quot;&gt;&#x9;&lt;/span&gt;&lt;span style=&quot;white-space: pre;&quot;&gt;&#x9;&lt;/span&gt;&lt;span style=&quot;white-space: pre;&quot;&gt;&#x9;&lt;span style=&quot;white-space: pre;&quot;&gt;&#x9;&lt;/span&gt;ข&lt;/span&gt;นม&lt;/u&gt;&lt;br&gt;&lt;span style=&quot;white-space: pre;&quot;&gt;&#x9;&lt;/span&gt;- โค้ก กระป๋องละ 10 บาท&lt;span style=&quot;white-space: pre;&quot;&gt;&#x9;&lt;/span&gt;&lt;span style=&quot;white-space: pre;&quot;&gt;&#x9;&lt;/span&gt;&lt;span style=&quot;white-space: pre;&quot;&gt;&#x9;&lt;/span&gt;&lt;span style=&quot;white-space: pre;&quot;&gt;&#x9;&lt;/span&gt;- เมล็ดทานตะวัน 13 บาท&lt;br&gt;&lt;span style=&quot;white-space: pre;&quot;&gt;&#x9;&lt;/span&gt;- น้ำเขียว กระป๋องละ 12 บาท&lt;span style=&quot;white-space: pre;&quot;&gt;&#x9;&lt;/span&gt;&lt;span style=&quot;white-space: pre;&quot;&gt;&#x9;&lt;/span&gt;&lt;span style=&quot;white-space: pre;&quot;&gt;&#x9;&lt;/span&gt;- ถั่วแปบ 20 บาท&lt;br&gt;&lt;span style=&quot;white-space: pre;&quot;&gt;&#x9;&lt;/span&gt;- อเมริกาโน่ 30 บาท&lt;span style=&quot;white-space: pre;&quot;&gt;&#x9;&lt;/span&gt;&lt;span style=&quot;white-space: pre;&quot;&gt;&#x9;&lt;/span&gt;&lt;span style=&quot;white-space: pre;&quot;&gt;&#x9;&lt;/span&gt;&lt;span style=&quot;white-space: pre;&quot;&gt;&#x9;&lt;/span&gt;&lt;span style=&quot;white-space: pre;&quot;&gt;&#x9;&lt;/span&gt;- จิ้นส้มหมก 15 บาท&lt;br&gt;&lt;span style=&quot;white-space: pre;&quot;&gt;&#x9;&lt;/span&gt;- ลาเต้ หวานเจี๊ยบ 35 บาท&lt;span style=&quot;white-space: pre;&quot;&gt;&#x9;&lt;/span&gt;&lt;br&gt;&lt;br&gt;&lt;u&gt;สิ่งที่ระบบควรจะทำได้&lt;/u&gt;&lt;br&gt;&lt;span style=&quot;white-space: pre;&quot;&gt;&#x9;&lt;/span&gt;- ลูกค้าเลือกสินค้า, ระบบจะต้องรวมยอดขาย และรวมรายการสินค้าทั้งหมดที่ลูกค้าเลือก&lt;br&gt;&lt;span style=&quot;white-space: pre;&quot;&gt;&#x9;&lt;/span&gt;- สรุปยอดว่าเหลือเงินในตู้อีกเท่าไหร่ เหลือเหรียญอะไรบ้าง? ธนบัตรอะไรบ้าง? อย่างละเท่าไหร่?&lt;br&gt;&lt;br&gt;&lt;br&gt;&lt;/font&gt;" style="text;html=1;align=left;verticalAlign=middle;resizable=0;points=[];autosize=1;strokeColor=none;fillColor=none;fontSize=14;" parent="mvioNwK95yMqdUQ73LqQ-70" vertex="1">
          <mxGeometry x="25" y="30" width="580" height="240" as="geometry" />
        </mxCell>
        <mxCell id="mvioNwK95yMqdUQ73LqQ-36" value="นี่เป็นปัญหา" style="swimlane;fontFamily=Sarabun;fontSource=https%3A%2F%2Ffonts.googleapis.com%2Fcss%3Ffamily%3DSarabun;" parent="mvioNwK95yMqdUQ73LqQ-70" vertex="1">
          <mxGeometry y="264" width="640" height="560" as="geometry" />
        </mxCell>
        <mxCell id="MSBUPBAipDb2ATlnMfmg-0" style="edgeStyle=orthogonalEdgeStyle;rounded=0;orthogonalLoop=1;jettySize=auto;html=1;exitX=0.5;exitY=1;exitDx=0;exitDy=0;entryX=0.5;entryY=0;entryDx=0;entryDy=0;" edge="1" parent="mvioNwK95yMqdUQ73LqQ-36" source="MSBUPBAipDb2ATlnMfmg-1" target="MSBUPBAipDb2ATlnMfmg-7">
          <mxGeometry relative="1" as="geometry" />
        </mxCell>
        <mxCell id="MSBUPBAipDb2ATlnMfmg-1" value="เริ่ม" style="ellipse;whiteSpace=wrap;html=1;" vertex="1" parent="mvioNwK95yMqdUQ73LqQ-36">
          <mxGeometry x="260" y="40" width="120" height="40" as="geometry" />
        </mxCell>
        <mxCell id="MSBUPBAipDb2ATlnMfmg-2" style="edgeStyle=orthogonalEdgeStyle;rounded=0;orthogonalLoop=1;jettySize=auto;html=1;exitX=0.5;exitY=1;exitDx=0;exitDy=0;entryX=0.5;entryY=0;entryDx=0;entryDy=0;" edge="1" parent="mvioNwK95yMqdUQ73LqQ-36" source="MSBUPBAipDb2ATlnMfmg-3" target="MSBUPBAipDb2ATlnMfmg-9">
          <mxGeometry relative="1" as="geometry" />
        </mxCell>
        <mxCell id="MSBUPBAipDb2ATlnMfmg-3" value="เลือกสินค้า" style="shape=process;whiteSpace=wrap;html=1;backgroundOutline=1;" vertex="1" parent="mvioNwK95yMqdUQ73LqQ-36">
          <mxGeometry x="260" y="200" width="120" height="60" as="geometry" />
        </mxCell>
        <mxCell id="MSBUPBAipDb2ATlnMfmg-6" style="edgeStyle=orthogonalEdgeStyle;rounded=0;orthogonalLoop=1;jettySize=auto;html=1;exitX=0.5;exitY=1;exitDx=0;exitDy=0;entryX=0.5;entryY=0;entryDx=0;entryDy=0;" edge="1" parent="mvioNwK95yMqdUQ73LqQ-36" source="MSBUPBAipDb2ATlnMfmg-7" target="MSBUPBAipDb2ATlnMfmg-3">
          <mxGeometry relative="1" as="geometry" />
        </mxCell>
        <mxCell id="MSBUPBAipDb2ATlnMfmg-7" value="ประกาศตัวแปล&lt;div&gt;เงินทอน,ราคาสินค้ารวม,เงินเข้า,ราคาสินค้าA1...An&lt;/div&gt;" style="rounded=0;whiteSpace=wrap;html=1;" vertex="1" parent="mvioNwK95yMqdUQ73LqQ-36">
          <mxGeometry x="260" y="110" width="120" height="60" as="geometry" />
        </mxCell>
        <mxCell id="MSBUPBAipDb2ATlnMfmg-8" style="edgeStyle=orthogonalEdgeStyle;rounded=0;orthogonalLoop=1;jettySize=auto;html=1;exitX=0.5;exitY=1;exitDx=0;exitDy=0;entryX=0.5;entryY=0;entryDx=0;entryDy=0;" edge="1" parent="mvioNwK95yMqdUQ73LqQ-36" source="MSBUPBAipDb2ATlnMfmg-9" target="MSBUPBAipDb2ATlnMfmg-11">
          <mxGeometry relative="1" as="geometry" />
        </mxCell>
        <mxCell id="MSBUPBAipDb2ATlnMfmg-9" value="แสดงราคาสินค้ารวม" style="shape=parallelogram;perimeter=parallelogramPerimeter;whiteSpace=wrap;html=1;fixedSize=1;" vertex="1" parent="mvioNwK95yMqdUQ73LqQ-36">
          <mxGeometry x="260" y="290" width="120" height="60" as="geometry" />
        </mxCell>
        <mxCell id="MSBUPBAipDb2ATlnMfmg-10" style="edgeStyle=orthogonalEdgeStyle;rounded=0;orthogonalLoop=1;jettySize=auto;html=1;exitX=0.5;exitY=1;exitDx=0;exitDy=0;entryX=0.5;entryY=0;entryDx=0;entryDy=0;" edge="1" parent="mvioNwK95yMqdUQ73LqQ-36" source="MSBUPBAipDb2ATlnMfmg-11">
          <mxGeometry relative="1" as="geometry">
            <mxPoint x="320" y="470" as="targetPoint" />
          </mxGeometry>
        </mxCell>
        <mxCell id="MSBUPBAipDb2ATlnMfmg-11" value="รับ เงินเข้า" style="shape=parallelogram;perimeter=parallelogramPerimeter;whiteSpace=wrap;html=1;fixedSize=1;" vertex="1" parent="mvioNwK95yMqdUQ73LqQ-36">
          <mxGeometry x="260" y="380" width="120" height="60" as="geometry" />
        </mxCell>
        <mxCell id="MSBUPBAipDb2ATlnMfmg-25" value="&lt;font style=&quot;vertical-align: inherit;&quot;&gt;&lt;font style=&quot;vertical-align: inherit;&quot;&gt;1&lt;/font&gt;&lt;/font&gt;" style="shape=offPageConnector;whiteSpace=wrap;html=1;" vertex="1" parent="mvioNwK95yMqdUQ73LqQ-36">
          <mxGeometry x="280" y="470" width="80" height="80" as="geometry" />
        </mxCell>
        <mxCell id="MSBUPBAipDb2ATlnMfmg-4" style="edgeStyle=orthogonalEdgeStyle;rounded=0;orthogonalLoop=1;jettySize=auto;html=1;exitX=0.5;exitY=1;exitDx=0;exitDy=0;entryX=0.5;entryY=0;entryDx=0;entryDy=0;" edge="1" parent="mvioNwK95yMqdUQ73LqQ-36" source="MSBUPBAipDb2ATlnMfmg-5" target="MSBUPBAipDb2ATlnMfmg-15">
          <mxGeometry relative="1" as="geometry" />
        </mxCell>
        <mxCell id="MSBUPBAipDb2ATlnMfmg-5" value="คำนวน" style="shape=process;whiteSpace=wrap;html=1;backgroundOutline=1;" vertex="1" parent="mvioNwK95yMqdUQ73LqQ-36">
          <mxGeometry x="1050" y="-187" width="120" height="60" as="geometry" />
        </mxCell>
        <mxCell id="MSBUPBAipDb2ATlnMfmg-14" style="edgeStyle=orthogonalEdgeStyle;rounded=0;orthogonalLoop=1;jettySize=auto;html=1;exitX=0.5;exitY=1;exitDx=0;exitDy=0;entryX=0.5;entryY=0;entryDx=0;entryDy=0;" edge="1" parent="mvioNwK95yMqdUQ73LqQ-36" source="MSBUPBAipDb2ATlnMfmg-15" target="MSBUPBAipDb2ATlnMfmg-17">
          <mxGeometry relative="1" as="geometry" />
        </mxCell>
        <mxCell id="MSBUPBAipDb2ATlnMfmg-15" value="แสดง เงินทอน" style="shape=parallelogram;perimeter=parallelogramPerimeter;whiteSpace=wrap;html=1;fixedSize=1;" vertex="1" parent="mvioNwK95yMqdUQ73LqQ-36">
          <mxGeometry x="1050" y="-97" width="120" height="60" as="geometry" />
        </mxCell>
        <mxCell id="MSBUPBAipDb2ATlnMfmg-16" style="edgeStyle=orthogonalEdgeStyle;rounded=0;orthogonalLoop=1;jettySize=auto;html=1;exitX=0.5;exitY=1;exitDx=0;exitDy=0;entryX=0.5;entryY=0;entryDx=0;entryDy=0;" edge="1" parent="mvioNwK95yMqdUQ73LqQ-36" source="MSBUPBAipDb2ATlnMfmg-17" target="MSBUPBAipDb2ATlnMfmg-19">
          <mxGeometry relative="1" as="geometry" />
        </mxCell>
        <mxCell id="MSBUPBAipDb2ATlnMfmg-17" value="แบ็ง1000บาท=a&lt;div&gt;แบ็ง500บาท=b&lt;/div&gt;&lt;div&gt;แบ็ง100บาท=c&lt;/div&gt;&lt;div&gt;แบ็ง50บาท=d&lt;/div&gt;&lt;div&gt;แบ็ง20บาท=e&lt;/div&gt;&lt;div&gt;&lt;span style=&quot;background-color: transparent; color: light-dark(rgb(0, 0, 0), rgb(255, 255, 255));&quot;&gt;เหรียญ10บาท&lt;/span&gt;=f&lt;/div&gt;&lt;div&gt;&lt;span style=&quot;background-color: transparent; color: light-dark(rgb(0, 0, 0), rgb(255, 255, 255));&quot;&gt;เหรียญ5บาท&lt;/span&gt;=g&lt;/div&gt;&lt;div&gt;&lt;span style=&quot;background-color: transparent; color: light-dark(rgb(0, 0, 0), rgb(255, 255, 255));&quot;&gt;เหรียญ2บาท&lt;/span&gt;=h&lt;/div&gt;&lt;div&gt;&lt;span style=&quot;background-color: transparent; color: light-dark(rgb(0, 0, 0), rgb(255, 255, 255));&quot;&gt;เหรียญ1บาท&lt;/span&gt;=i&lt;/div&gt;" style="rounded=0;whiteSpace=wrap;html=1;" vertex="1" parent="mvioNwK95yMqdUQ73LqQ-36">
          <mxGeometry x="1030" y="-7" width="160" height="180" as="geometry" />
        </mxCell>
        <mxCell id="MSBUPBAipDb2ATlnMfmg-18" style="edgeStyle=orthogonalEdgeStyle;rounded=0;orthogonalLoop=1;jettySize=auto;html=1;exitX=0.5;exitY=1;exitDx=0;exitDy=0;entryX=0.5;entryY=0;entryDx=0;entryDy=0;" edge="1" parent="mvioNwK95yMqdUQ73LqQ-36" source="MSBUPBAipDb2ATlnMfmg-19" target="MSBUPBAipDb2ATlnMfmg-21">
          <mxGeometry relative="1" as="geometry" />
        </mxCell>
        <mxCell id="MSBUPBAipDb2ATlnMfmg-19" value="&lt;font style=&quot;vertical-align: inherit;&quot;&gt;&lt;font style=&quot;vertical-align: inherit;&quot;&gt;&lt;font style=&quot;vertical-align: inherit;&quot;&gt;&lt;font style=&quot;vertical-align: inherit;&quot;&gt;&lt;font style=&quot;vertical-align: inherit;&quot;&gt;&lt;font style=&quot;vertical-align: inherit;&quot;&gt;&lt;font style=&quot;vertical-align: inherit;&quot;&gt;&lt;font style=&quot;vertical-align: inherit;&quot;&gt;แสดงจำนวนแบ็งและเหรียญ&lt;/font&gt;&lt;/font&gt;&lt;/font&gt;&lt;/font&gt;&lt;/font&gt;&lt;/font&gt;&lt;/font&gt;&lt;/font&gt;" style="shape=parallelogram;perimeter=parallelogramPerimeter;whiteSpace=wrap;html=1;fixedSize=1;" vertex="1" parent="mvioNwK95yMqdUQ73LqQ-36">
          <mxGeometry x="1045" y="203" width="130" height="60" as="geometry" />
        </mxCell>
        <mxCell id="MSBUPBAipDb2ATlnMfmg-20" style="edgeStyle=orthogonalEdgeStyle;rounded=0;orthogonalLoop=1;jettySize=auto;html=1;exitX=0.5;exitY=1;exitDx=0;exitDy=0;entryX=0.5;entryY=0;entryDx=0;entryDy=0;" edge="1" parent="mvioNwK95yMqdUQ73LqQ-36" source="MSBUPBAipDb2ATlnMfmg-21" target="MSBUPBAipDb2ATlnMfmg-22">
          <mxGeometry relative="1" as="geometry" />
        </mxCell>
        <mxCell id="MSBUPBAipDb2ATlnMfmg-21" value="&lt;font style=&quot;vertical-align: inherit;&quot;&gt;&lt;font style=&quot;vertical-align: inherit;&quot;&gt;ทอนเงิน&lt;/font&gt;&lt;/font&gt;" style="shape=parallelogram;perimeter=parallelogramPerimeter;whiteSpace=wrap;html=1;fixedSize=1;" vertex="1" parent="mvioNwK95yMqdUQ73LqQ-36">
          <mxGeometry x="1050" y="293" width="120" height="60" as="geometry" />
        </mxCell>
        <mxCell id="MSBUPBAipDb2ATlnMfmg-22" value="&lt;font style=&quot;vertical-align: inherit;&quot;&gt;&lt;font style=&quot;vertical-align: inherit;&quot;&gt;จบ&lt;/font&gt;&lt;/font&gt;" style="ellipse;whiteSpace=wrap;html=1;" vertex="1" parent="mvioNwK95yMqdUQ73LqQ-36">
          <mxGeometry x="1050" y="383" width="120" height="50" as="geometry" />
        </mxCell>
        <mxCell id="MSBUPBAipDb2ATlnMfmg-24" style="edgeStyle=orthogonalEdgeStyle;rounded=0;orthogonalLoop=1;jettySize=auto;html=1;exitX=0.5;exitY=1;exitDx=0;exitDy=0;entryX=0.5;entryY=0;entryDx=0;entryDy=0;" edge="1" parent="mvioNwK95yMqdUQ73LqQ-36" target="MSBUPBAipDb2ATlnMfmg-5">
          <mxGeometry relative="1" as="geometry">
            <mxPoint x="1110" y="-217" as="sourcePoint" />
          </mxGeometry>
        </mxCell>
        <mxCell id="MSBUPBAipDb2ATlnMfmg-23" value="แสดง เงินเข้า" style="shape=parallelogram;perimeter=parallelogramPerimeter;whiteSpace=wrap;html=1;fixedSize=1;" vertex="1" parent="mvioNwK95yMqdUQ73LqQ-36">
          <mxGeometry x="1050" y="-277" width="120" height="60" as="geometry" />
        </mxCell>
        <mxCell id="MSBUPBAipDb2ATlnMfmg-79" style="edgeStyle=orthogonalEdgeStyle;rounded=0;orthogonalLoop=1;jettySize=auto;html=1;exitX=0.5;exitY=1;exitDx=0;exitDy=0;" edge="1" parent="mvioNwK95yMqdUQ73LqQ-36" source="MSBUPBAipDb2ATlnMfmg-26">
          <mxGeometry relative="1" as="geometry">
            <mxPoint x="1109.3333333333335" y="-280" as="targetPoint" />
          </mxGeometry>
        </mxCell>
        <mxCell id="MSBUPBAipDb2ATlnMfmg-26" value="&lt;font style=&quot;vertical-align: inherit;&quot;&gt;&lt;font style=&quot;vertical-align: inherit;&quot;&gt;1&lt;/font&gt;&lt;/font&gt;" style="shape=offPageConnector;whiteSpace=wrap;html=1;" vertex="1" parent="mvioNwK95yMqdUQ73LqQ-36">
          <mxGeometry x="1070" y="-386" width="80" height="80" as="geometry" />
        </mxCell>
        <mxCell id="MSBUPBAipDb2ATlnMfmg-53" value="นี่เป็นปัญหา" style="swimlane;fontFamily=Sarabun;fontSource=https%3A%2F%2Ffonts.googleapis.com%2Fcss%3Ffamily%3DSarabun;" vertex="1" parent="WIyWlLk6GJQsqaUBKTNV-1">
          <mxGeometry x="70" y="124" width="640" height="920" as="geometry" />
        </mxCell>
        <mxCell id="MSBUPBAipDb2ATlnMfmg-80" value="&lt;font style=&quot;vertical-align: inherit;&quot;&gt;&lt;font style=&quot;vertical-align: inherit;&quot;&gt;&lt;font style=&quot;vertical-align: inherit;&quot;&gt;&lt;font style=&quot;vertical-align: inherit;&quot;&gt;ฟังก์ชัน เลือกสินค้า&lt;/font&gt;&lt;/font&gt;&lt;/font&gt;&lt;/font&gt;" style="swimlane;whiteSpace=wrap;html=1;" vertex="1" parent="WIyWlLk6GJQsqaUBKTNV-1">
          <mxGeometry x="-760" y="1200" width="720" height="920" as="geometry" />
        </mxCell>
        <mxCell id="MSBUPBAipDb2ATlnMfmg-81" style="edgeStyle=orthogonalEdgeStyle;rounded=0;orthogonalLoop=1;jettySize=auto;html=1;exitX=0.5;exitY=1;exitDx=0;exitDy=0;" edge="1" parent="MSBUPBAipDb2ATlnMfmg-80" source="MSBUPBAipDb2ATlnMfmg-82" target="MSBUPBAipDb2ATlnMfmg-89">
          <mxGeometry relative="1" as="geometry" />
        </mxCell>
        <mxCell id="MSBUPBAipDb2ATlnMfmg-82" value="แสดงน้ำและขนม&lt;div&gt;&lt;b&gt;&lt;u&gt;น้ำ&lt;/u&gt;&lt;/b&gt;&lt;/div&gt;&lt;div&gt;&lt;span style=&quot;font-family: Sarabun; font-size: 14px; text-align: left; text-wrap-mode: nowrap;&quot;&gt;โค้ก กระป๋องละ 10 บาท&lt;/span&gt;&lt;/div&gt;&lt;div&gt;&lt;span style=&quot;font-family: Sarabun; font-size: 14px; text-align: left; text-wrap-mode: nowrap;&quot;&gt;น้ำเขียว กระป๋องละ 12 บาท&lt;/span&gt;&lt;span style=&quot;font-family: Sarabun; font-size: 14px; text-align: left; text-wrap-mode: nowrap;&quot;&gt;&lt;/span&gt;&lt;/div&gt;&lt;div&gt;&lt;span style=&quot;font-family: Sarabun; font-size: 14px; text-align: left; text-wrap-mode: nowrap;&quot;&gt;อเมริกาโน่ 30 บาท&lt;/span&gt;&lt;span style=&quot;font-family: Sarabun; font-size: 14px; text-align: left; text-wrap-mode: nowrap;&quot;&gt;&lt;/span&gt;&lt;/div&gt;&lt;div&gt;&lt;span style=&quot;font-family: Sarabun; font-size: 14px; text-align: left; text-wrap-mode: nowrap;&quot;&gt;ลาเต้ หวานเจี๊ยบ 35 บาท&lt;/span&gt;&lt;span style=&quot;font-family: Sarabun; font-size: 14px; text-align: left; text-wrap-mode: nowrap;&quot;&gt;&lt;/span&gt;&lt;/div&gt;&lt;div&gt;&lt;u style=&quot;font-family: Sarabun; font-size: 14px; text-align: left; text-wrap-mode: nowrap;&quot;&gt;&lt;span style=&quot;white-space-collapse: preserve;&quot;&gt;ข&lt;/span&gt;นม&lt;/u&gt;&lt;span style=&quot;font-family: Sarabun; font-size: 14px; text-align: left; text-wrap-mode: nowrap;&quot;&gt;&lt;/span&gt;&lt;/div&gt;&lt;div&gt;&lt;span style=&quot;font-family: Sarabun; font-size: 14px; text-align: left; text-wrap-mode: nowrap;&quot;&gt;&amp;nbsp;เมล็ดทานตะวัน 13 บาท&lt;/span&gt;&lt;u style=&quot;font-family: Sarabun; font-size: 14px; text-align: left; text-wrap-mode: nowrap;&quot;&gt;&lt;/u&gt;&lt;/div&gt;&lt;div&gt;&lt;span style=&quot;font-family: Sarabun; font-size: 14px; text-align: left; text-wrap-mode: nowrap;&quot;&gt;ถั่วแปบ 20 บาท&lt;/span&gt;&lt;span style=&quot;font-family: Sarabun; font-size: 14px; text-align: left; text-wrap-mode: nowrap;&quot;&gt;&lt;/span&gt;&lt;/div&gt;&lt;div&gt;&lt;span style=&quot;font-family: Sarabun; font-size: 14px; text-align: left; text-wrap-mode: nowrap;&quot;&gt;จิ้นส้มหมก 15 บาท&lt;/span&gt;&lt;span style=&quot;font-family: Sarabun; font-size: 14px; text-align: left; text-wrap-mode: nowrap;&quot;&gt;&lt;/span&gt;&lt;/div&gt;" style="shape=parallelogram;perimeter=parallelogramPerimeter;whiteSpace=wrap;html=1;fixedSize=1;" vertex="1" parent="MSBUPBAipDb2ATlnMfmg-80">
          <mxGeometry x="168.90999999999985" y="230" width="440" height="190" as="geometry" />
        </mxCell>
        <mxCell id="MSBUPBAipDb2ATlnMfmg-83" style="edgeStyle=orthogonalEdgeStyle;rounded=0;orthogonalLoop=1;jettySize=auto;html=1;exitX=0.5;exitY=1;exitDx=0;exitDy=0;entryX=0.5;entryY=0;entryDx=0;entryDy=0;" edge="1" parent="MSBUPBAipDb2ATlnMfmg-80" source="MSBUPBAipDb2ATlnMfmg-84" target="MSBUPBAipDb2ATlnMfmg-86">
          <mxGeometry relative="1" as="geometry" />
        </mxCell>
        <mxCell id="MSBUPBAipDb2ATlnMfmg-84" value="เริ่ม" style="ellipse;whiteSpace=wrap;html=1;" vertex="1" parent="MSBUPBAipDb2ATlnMfmg-80">
          <mxGeometry x="328.9099999999999" y="50" width="120" height="50" as="geometry" />
        </mxCell>
        <mxCell id="MSBUPBAipDb2ATlnMfmg-85" style="edgeStyle=orthogonalEdgeStyle;rounded=0;orthogonalLoop=1;jettySize=auto;html=1;exitX=0.5;exitY=1;exitDx=0;exitDy=0;entryX=0.5;entryY=0;entryDx=0;entryDy=0;" edge="1" parent="MSBUPBAipDb2ATlnMfmg-80" source="MSBUPBAipDb2ATlnMfmg-86" target="MSBUPBAipDb2ATlnMfmg-82">
          <mxGeometry relative="1" as="geometry" />
        </mxCell>
        <mxCell id="MSBUPBAipDb2ATlnMfmg-86" value="แสดงน้ำและขนม" style="shape=parallelogram;perimeter=parallelogramPerimeter;whiteSpace=wrap;html=1;fixedSize=1;" vertex="1" parent="MSBUPBAipDb2ATlnMfmg-80">
          <mxGeometry x="328.9099999999999" y="130" width="120" height="60" as="geometry" />
        </mxCell>
        <mxCell id="MSBUPBAipDb2ATlnMfmg-87" value="จริง" style="edgeStyle=orthogonalEdgeStyle;rounded=0;orthogonalLoop=1;jettySize=auto;html=1;exitX=0;exitY=0.5;exitDx=0;exitDy=0;" edge="1" parent="MSBUPBAipDb2ATlnMfmg-80" source="MSBUPBAipDb2ATlnMfmg-89">
          <mxGeometry relative="1" as="geometry">
            <mxPoint x="388.9099999999999" y="110" as="targetPoint" />
            <Array as="points">
              <mxPoint x="58.909999999999854" y="510" />
              <mxPoint x="58.909999999999854" y="110" />
            </Array>
          </mxGeometry>
        </mxCell>
        <mxCell id="MSBUPBAipDb2ATlnMfmg-88" value="เท็จ" style="edgeStyle=orthogonalEdgeStyle;rounded=0;orthogonalLoop=1;jettySize=auto;html=1;exitX=0.5;exitY=1;exitDx=0;exitDy=0;entryX=0.5;entryY=0;entryDx=0;entryDy=0;" edge="1" parent="MSBUPBAipDb2ATlnMfmg-80" source="MSBUPBAipDb2ATlnMfmg-89" target="MSBUPBAipDb2ATlnMfmg-91">
          <mxGeometry relative="1" as="geometry" />
        </mxCell>
        <mxCell id="MSBUPBAipDb2ATlnMfmg-89" value="เลือกเพิ่ม" style="rhombus;whiteSpace=wrap;html=1;" vertex="1" parent="MSBUPBAipDb2ATlnMfmg-80">
          <mxGeometry x="348.9099999999999" y="470" width="80" height="80" as="geometry" />
        </mxCell>
        <mxCell id="MSBUPBAipDb2ATlnMfmg-90" style="edgeStyle=orthogonalEdgeStyle;rounded=0;orthogonalLoop=1;jettySize=auto;html=1;exitX=0.5;exitY=1;exitDx=0;exitDy=0;entryX=0.5;entryY=0;entryDx=0;entryDy=0;" edge="1" parent="MSBUPBAipDb2ATlnMfmg-80" source="MSBUPBAipDb2ATlnMfmg-91" target="MSBUPBAipDb2ATlnMfmg-94">
          <mxGeometry relative="1" as="geometry" />
        </mxCell>
        <mxCell id="MSBUPBAipDb2ATlnMfmg-91" value="บันทึกค่าในราคาสินค้าA1...An" style="rounded=0;whiteSpace=wrap;html=1;" vertex="1" parent="MSBUPBAipDb2ATlnMfmg-80">
          <mxGeometry x="328.9099999999999" y="610" width="120" height="60" as="geometry" />
        </mxCell>
        <mxCell id="MSBUPBAipDb2ATlnMfmg-92" value="จบ" style="ellipse;whiteSpace=wrap;html=1;" vertex="1" parent="MSBUPBAipDb2ATlnMfmg-80">
          <mxGeometry x="328.9099999999999" y="830" width="120" height="50" as="geometry" />
        </mxCell>
        <mxCell id="MSBUPBAipDb2ATlnMfmg-93" style="edgeStyle=orthogonalEdgeStyle;rounded=0;orthogonalLoop=1;jettySize=auto;html=1;exitX=0.5;exitY=1;exitDx=0;exitDy=0;entryX=0.5;entryY=0;entryDx=0;entryDy=0;" edge="1" parent="MSBUPBAipDb2ATlnMfmg-80" source="MSBUPBAipDb2ATlnMfmg-94" target="MSBUPBAipDb2ATlnMfmg-92">
          <mxGeometry relative="1" as="geometry" />
        </mxCell>
        <mxCell id="MSBUPBAipDb2ATlnMfmg-94" value="ราคาสินค้ารวม=ราคาสินค้าA1+ราคาสินค้าA2+ราคาสินค้าA3+...ราคาสินค้าAn" style="rounded=0;whiteSpace=wrap;html=1;" vertex="1" parent="MSBUPBAipDb2ATlnMfmg-80">
          <mxGeometry x="188.90999999999985" y="720" width="400" height="60" as="geometry" />
        </mxCell>
        <mxCell id="MSBUPBAipDb2ATlnMfmg-96" style="edgeStyle=orthogonalEdgeStyle;rounded=0;orthogonalLoop=1;jettySize=auto;html=1;exitX=0.5;exitY=1;exitDx=0;exitDy=0;entryX=0.5;entryY=0;entryDx=0;entryDy=0;" edge="1" parent="WIyWlLk6GJQsqaUBKTNV-1" source="MSBUPBAipDb2ATlnMfmg-97" target="MSBUPBAipDb2ATlnMfmg-111">
          <mxGeometry relative="1" as="geometry" />
        </mxCell>
        <mxCell id="MSBUPBAipDb2ATlnMfmg-97" value="เริ่ม" style="ellipse;whiteSpace=wrap;html=1;" vertex="1" parent="WIyWlLk6GJQsqaUBKTNV-1">
          <mxGeometry x="290.5" y="1230" width="120" height="50" as="geometry" />
        </mxCell>
        <mxCell id="MSBUPBAipDb2ATlnMfmg-98" style="edgeStyle=orthogonalEdgeStyle;rounded=0;orthogonalLoop=1;jettySize=auto;html=1;exitX=0.5;exitY=1;exitDx=0;exitDy=0;entryX=0.5;entryY=0;entryDx=0;entryDy=0;" edge="1" parent="WIyWlLk6GJQsqaUBKTNV-1" source="MSBUPBAipDb2ATlnMfmg-99" target="MSBUPBAipDb2ATlnMfmg-123">
          <mxGeometry relative="1" as="geometry" />
        </mxCell>
        <mxCell id="MSBUPBAipDb2ATlnMfmg-99" value="เงินทอน=ราคาสินค้ารวม-เงินเข้า" style="rounded=0;whiteSpace=wrap;html=1;" vertex="1" parent="WIyWlLk6GJQsqaUBKTNV-1">
          <mxGeometry x="265.5" y="1400" width="170" height="60" as="geometry" />
        </mxCell>
        <mxCell id="MSBUPBAipDb2ATlnMfmg-100" value="จริง" style="edgeStyle=orthogonalEdgeStyle;rounded=0;orthogonalLoop=1;jettySize=auto;html=1;exitX=0;exitY=0.5;exitDx=0;exitDy=0;entryX=1;entryY=0.5;entryDx=0;entryDy=0;" edge="1" parent="WIyWlLk6GJQsqaUBKTNV-1" source="MSBUPBAipDb2ATlnMfmg-102" target="MSBUPBAipDb2ATlnMfmg-104">
          <mxGeometry relative="1" as="geometry" />
        </mxCell>
        <mxCell id="MSBUPBAipDb2ATlnMfmg-101" value="เท็จ" style="edgeStyle=orthogonalEdgeStyle;rounded=0;orthogonalLoop=1;jettySize=auto;html=1;exitX=1;exitY=0.5;exitDx=0;exitDy=0;entryX=0.5;entryY=0;entryDx=0;entryDy=0;" edge="1" parent="WIyWlLk6GJQsqaUBKTNV-1" source="MSBUPBAipDb2ATlnMfmg-102" target="MSBUPBAipDb2ATlnMfmg-125">
          <mxGeometry relative="1" as="geometry">
            <mxPoint x="510.5" y="1580" as="targetPoint" />
          </mxGeometry>
        </mxCell>
        <mxCell id="MSBUPBAipDb2ATlnMfmg-102" value="เงินทอน&amp;gt;1000" style="rhombus;whiteSpace=wrap;html=1;" vertex="1" parent="WIyWlLk6GJQsqaUBKTNV-1">
          <mxGeometry x="314" y="1540" width="77.5" height="80" as="geometry" />
        </mxCell>
        <mxCell id="MSBUPBAipDb2ATlnMfmg-103" style="edgeStyle=orthogonalEdgeStyle;rounded=0;orthogonalLoop=1;jettySize=auto;html=1;exitX=0.5;exitY=1;exitDx=0;exitDy=0;entryX=0.5;entryY=0;entryDx=0;entryDy=0;" edge="1" parent="WIyWlLk6GJQsqaUBKTNV-1" source="MSBUPBAipDb2ATlnMfmg-104" target="MSBUPBAipDb2ATlnMfmg-109">
          <mxGeometry relative="1" as="geometry" />
        </mxCell>
        <mxCell id="MSBUPBAipDb2ATlnMfmg-104" value="เงินทอน-1000" style="rounded=0;whiteSpace=wrap;html=1;" vertex="1" parent="WIyWlLk6GJQsqaUBKTNV-1">
          <mxGeometry x="149" y="1550" width="120" height="60" as="geometry" />
        </mxCell>
        <mxCell id="MSBUPBAipDb2ATlnMfmg-105" value="จริง" style="edgeStyle=orthogonalEdgeStyle;rounded=0;orthogonalLoop=1;jettySize=auto;html=1;exitX=0;exitY=0.5;exitDx=0;exitDy=0;entryX=0;entryY=0.5;entryDx=0;entryDy=0;" edge="1" parent="WIyWlLk6GJQsqaUBKTNV-1" source="MSBUPBAipDb2ATlnMfmg-107" target="MSBUPBAipDb2ATlnMfmg-123">
          <mxGeometry relative="1" as="geometry">
            <mxPoint x="350.5" y="1470" as="targetPoint" />
            <Array as="points">
              <mxPoint x="70.5" y="1770" />
              <mxPoint x="70.5" y="1500" />
            </Array>
          </mxGeometry>
        </mxCell>
        <mxCell id="MSBUPBAipDb2ATlnMfmg-106" value="เท็จ" style="edgeStyle=orthogonalEdgeStyle;rounded=0;orthogonalLoop=1;jettySize=auto;html=1;exitX=0.5;exitY=1;exitDx=0;exitDy=0;entryX=0;entryY=0.5;entryDx=0;entryDy=0;" edge="1" parent="WIyWlLk6GJQsqaUBKTNV-1" source="MSBUPBAipDb2ATlnMfmg-107" target="MSBUPBAipDb2ATlnMfmg-140">
          <mxGeometry relative="1" as="geometry">
            <mxPoint x="209.5" y="2240" as="targetPoint" />
          </mxGeometry>
        </mxCell>
        <mxCell id="MSBUPBAipDb2ATlnMfmg-107" value="เงินทอน&amp;gt;1000" style="rhombus;whiteSpace=wrap;html=1;" vertex="1" parent="WIyWlLk6GJQsqaUBKTNV-1">
          <mxGeometry x="169" y="1730" width="80" height="80" as="geometry" />
        </mxCell>
        <mxCell id="MSBUPBAipDb2ATlnMfmg-108" style="edgeStyle=orthogonalEdgeStyle;rounded=0;orthogonalLoop=1;jettySize=auto;html=1;exitX=0.5;exitY=1;exitDx=0;exitDy=0;entryX=0.5;entryY=0;entryDx=0;entryDy=0;" edge="1" parent="WIyWlLk6GJQsqaUBKTNV-1" source="MSBUPBAipDb2ATlnMfmg-109" target="MSBUPBAipDb2ATlnMfmg-107">
          <mxGeometry relative="1" as="geometry" />
        </mxCell>
        <mxCell id="MSBUPBAipDb2ATlnMfmg-109" value="a=a+1" style="rounded=0;whiteSpace=wrap;html=1;" vertex="1" parent="WIyWlLk6GJQsqaUBKTNV-1">
          <mxGeometry x="149" y="1640" width="120" height="60" as="geometry" />
        </mxCell>
        <mxCell id="MSBUPBAipDb2ATlnMfmg-110" style="edgeStyle=orthogonalEdgeStyle;rounded=0;orthogonalLoop=1;jettySize=auto;html=1;exitX=0.5;exitY=1;exitDx=0;exitDy=0;entryX=0.5;entryY=0;entryDx=0;entryDy=0;" edge="1" parent="WIyWlLk6GJQsqaUBKTNV-1" source="MSBUPBAipDb2ATlnMfmg-111" target="MSBUPBAipDb2ATlnMfmg-99">
          <mxGeometry relative="1" as="geometry" />
        </mxCell>
        <mxCell id="MSBUPBAipDb2ATlnMfmg-111" value="ประกาศตัวแปล&lt;div&gt;a=0,b&lt;span style=&quot;background-color: transparent; color: light-dark(rgb(0, 0, 0), rgb(255, 255, 255));&quot;&gt;=0,c=0,d=0,e=0,f=0,g=0,h=0,i=0&lt;/span&gt;&lt;/div&gt;&lt;div&gt;&lt;br&gt;&lt;/div&gt;" style="rounded=0;whiteSpace=wrap;html=1;" vertex="1" parent="WIyWlLk6GJQsqaUBKTNV-1">
          <mxGeometry x="245.5" y="1310" width="210" height="60" as="geometry" />
        </mxCell>
        <mxCell id="MSBUPBAipDb2ATlnMfmg-112" value="จริง" style="edgeStyle=orthogonalEdgeStyle;rounded=0;orthogonalLoop=1;jettySize=auto;html=1;exitX=0;exitY=0.5;exitDx=0;exitDy=0;entryX=1;entryY=0.5;entryDx=0;entryDy=0;" edge="1" parent="WIyWlLk6GJQsqaUBKTNV-1" source="MSBUPBAipDb2ATlnMfmg-114" target="MSBUPBAipDb2ATlnMfmg-116">
          <mxGeometry relative="1" as="geometry" />
        </mxCell>
        <mxCell id="MSBUPBAipDb2ATlnMfmg-113" value="เท็จ" style="edgeStyle=orthogonalEdgeStyle;rounded=0;orthogonalLoop=1;jettySize=auto;html=1;exitX=1;exitY=0.5;exitDx=0;exitDy=0;entryX=0.5;entryY=0;entryDx=0;entryDy=0;" edge="1" parent="WIyWlLk6GJQsqaUBKTNV-1" source="MSBUPBAipDb2ATlnMfmg-114" target="MSBUPBAipDb2ATlnMfmg-137">
          <mxGeometry relative="1" as="geometry">
            <mxPoint x="680.5" y="1730" as="targetPoint" />
          </mxGeometry>
        </mxCell>
        <mxCell id="MSBUPBAipDb2ATlnMfmg-114" value="เงินทอน&amp;gt;500" style="rhombus;whiteSpace=wrap;html=1;" vertex="1" parent="WIyWlLk6GJQsqaUBKTNV-1">
          <mxGeometry x="474" y="1690" width="80" height="80" as="geometry" />
        </mxCell>
        <mxCell id="MSBUPBAipDb2ATlnMfmg-115" style="edgeStyle=orthogonalEdgeStyle;rounded=0;orthogonalLoop=1;jettySize=auto;html=1;exitX=0.5;exitY=1;exitDx=0;exitDy=0;entryX=0.5;entryY=0;entryDx=0;entryDy=0;" edge="1" parent="WIyWlLk6GJQsqaUBKTNV-1" source="MSBUPBAipDb2ATlnMfmg-116" target="MSBUPBAipDb2ATlnMfmg-121">
          <mxGeometry relative="1" as="geometry" />
        </mxCell>
        <mxCell id="MSBUPBAipDb2ATlnMfmg-116" value="เงินทอน-500" style="rounded=0;whiteSpace=wrap;html=1;" vertex="1" parent="WIyWlLk6GJQsqaUBKTNV-1">
          <mxGeometry x="314" y="1700" width="120" height="60" as="geometry" />
        </mxCell>
        <mxCell id="MSBUPBAipDb2ATlnMfmg-117" value="จริง" style="edgeStyle=orthogonalEdgeStyle;rounded=0;orthogonalLoop=1;jettySize=auto;html=1;exitX=0;exitY=0.5;exitDx=0;exitDy=0;entryX=0;entryY=0.5;entryDx=0;entryDy=0;" edge="1" parent="WIyWlLk6GJQsqaUBKTNV-1" source="MSBUPBAipDb2ATlnMfmg-119" target="MSBUPBAipDb2ATlnMfmg-125">
          <mxGeometry relative="1" as="geometry">
            <mxPoint x="530.5" y="1650" as="targetPoint" />
            <Array as="points">
              <mxPoint x="294.5" y="1920" />
              <mxPoint x="294.5" y="1650" />
            </Array>
          </mxGeometry>
        </mxCell>
        <mxCell id="MSBUPBAipDb2ATlnMfmg-118" value="เท็จ" style="edgeStyle=orthogonalEdgeStyle;rounded=0;orthogonalLoop=1;jettySize=auto;html=1;exitX=0.5;exitY=1;exitDx=0;exitDy=0;entryX=0.5;entryY=0;entryDx=0;entryDy=0;" edge="1" parent="WIyWlLk6GJQsqaUBKTNV-1" source="MSBUPBAipDb2ATlnMfmg-119" target="MSBUPBAipDb2ATlnMfmg-140">
          <mxGeometry relative="1" as="geometry" />
        </mxCell>
        <mxCell id="MSBUPBAipDb2ATlnMfmg-119" value="เงินทอน&amp;gt;500" style="rhombus;whiteSpace=wrap;html=1;" vertex="1" parent="WIyWlLk6GJQsqaUBKTNV-1">
          <mxGeometry x="334" y="1880" width="80" height="80" as="geometry" />
        </mxCell>
        <mxCell id="MSBUPBAipDb2ATlnMfmg-120" style="edgeStyle=orthogonalEdgeStyle;rounded=0;orthogonalLoop=1;jettySize=auto;html=1;exitX=0.5;exitY=1;exitDx=0;exitDy=0;entryX=0.5;entryY=0;entryDx=0;entryDy=0;" edge="1" parent="WIyWlLk6GJQsqaUBKTNV-1" source="MSBUPBAipDb2ATlnMfmg-121" target="MSBUPBAipDb2ATlnMfmg-119">
          <mxGeometry relative="1" as="geometry" />
        </mxCell>
        <mxCell id="MSBUPBAipDb2ATlnMfmg-121" value="b=b+1" style="rounded=0;whiteSpace=wrap;html=1;" vertex="1" parent="WIyWlLk6GJQsqaUBKTNV-1">
          <mxGeometry x="314" y="1790" width="120" height="60" as="geometry" />
        </mxCell>
        <mxCell id="MSBUPBAipDb2ATlnMfmg-122" style="edgeStyle=orthogonalEdgeStyle;rounded=0;orthogonalLoop=1;jettySize=auto;html=1;exitX=0.5;exitY=1;exitDx=0;exitDy=0;entryX=0.5;entryY=0;entryDx=0;entryDy=0;" edge="1" parent="WIyWlLk6GJQsqaUBKTNV-1" source="MSBUPBAipDb2ATlnMfmg-123" target="MSBUPBAipDb2ATlnMfmg-102">
          <mxGeometry relative="1" as="geometry" />
        </mxCell>
        <mxCell id="MSBUPBAipDb2ATlnMfmg-123" value="" style="ellipse;whiteSpace=wrap;html=1;aspect=fixed;" vertex="1" parent="WIyWlLk6GJQsqaUBKTNV-1">
          <mxGeometry x="341.5" y="1490" width="20" height="20" as="geometry" />
        </mxCell>
        <mxCell id="MSBUPBAipDb2ATlnMfmg-124" style="edgeStyle=orthogonalEdgeStyle;rounded=0;orthogonalLoop=1;jettySize=auto;html=1;exitX=0.5;exitY=1;exitDx=0;exitDy=0;entryX=0.5;entryY=0;entryDx=0;entryDy=0;" edge="1" parent="WIyWlLk6GJQsqaUBKTNV-1" source="MSBUPBAipDb2ATlnMfmg-125" target="MSBUPBAipDb2ATlnMfmg-114">
          <mxGeometry relative="1" as="geometry" />
        </mxCell>
        <mxCell id="MSBUPBAipDb2ATlnMfmg-125" value="" style="ellipse;whiteSpace=wrap;html=1;aspect=fixed;" vertex="1" parent="WIyWlLk6GJQsqaUBKTNV-1">
          <mxGeometry x="504" y="1640" width="20" height="20" as="geometry" />
        </mxCell>
        <mxCell id="MSBUPBAipDb2ATlnMfmg-126" value="จริง" style="edgeStyle=orthogonalEdgeStyle;rounded=0;orthogonalLoop=1;jettySize=auto;html=1;exitX=0;exitY=0.5;exitDx=0;exitDy=0;entryX=1;entryY=0.5;entryDx=0;entryDy=0;" edge="1" parent="WIyWlLk6GJQsqaUBKTNV-1" source="MSBUPBAipDb2ATlnMfmg-128" target="MSBUPBAipDb2ATlnMfmg-130">
          <mxGeometry relative="1" as="geometry" />
        </mxCell>
        <mxCell id="MSBUPBAipDb2ATlnMfmg-127" value="เท็จ" style="edgeStyle=orthogonalEdgeStyle;rounded=0;orthogonalLoop=1;jettySize=auto;html=1;exitX=0.5;exitY=1;exitDx=0;exitDy=0;entryX=1;entryY=0.5;entryDx=0;entryDy=0;fillColor=#f8cecc;strokeColor=#b85450;" edge="1" parent="WIyWlLk6GJQsqaUBKTNV-1" source="MSBUPBAipDb2ATlnMfmg-128" target="MSBUPBAipDb2ATlnMfmg-138">
          <mxGeometry relative="1" as="geometry">
            <mxPoint x="679.7105263157896" y="2240" as="targetPoint" />
          </mxGeometry>
        </mxCell>
        <mxCell id="MSBUPBAipDb2ATlnMfmg-128" value="เงินทอน&amp;gt;100" style="rhombus;whiteSpace=wrap;html=1;" vertex="1" parent="WIyWlLk6GJQsqaUBKTNV-1">
          <mxGeometry x="640" y="1840" width="80" height="80" as="geometry" />
        </mxCell>
        <mxCell id="MSBUPBAipDb2ATlnMfmg-129" style="edgeStyle=orthogonalEdgeStyle;rounded=0;orthogonalLoop=1;jettySize=auto;html=1;exitX=0.5;exitY=1;exitDx=0;exitDy=0;entryX=0.5;entryY=0;entryDx=0;entryDy=0;" edge="1" parent="WIyWlLk6GJQsqaUBKTNV-1" source="MSBUPBAipDb2ATlnMfmg-130" target="MSBUPBAipDb2ATlnMfmg-135">
          <mxGeometry relative="1" as="geometry" />
        </mxCell>
        <mxCell id="MSBUPBAipDb2ATlnMfmg-130" value="เงินทอน-100" style="rounded=0;whiteSpace=wrap;html=1;" vertex="1" parent="WIyWlLk6GJQsqaUBKTNV-1">
          <mxGeometry x="480" y="1850" width="120" height="60" as="geometry" />
        </mxCell>
        <mxCell id="MSBUPBAipDb2ATlnMfmg-131" value="จริง" style="edgeStyle=orthogonalEdgeStyle;rounded=0;orthogonalLoop=1;jettySize=auto;html=1;exitX=0;exitY=0.5;exitDx=0;exitDy=0;entryX=0;entryY=0.5;entryDx=0;entryDy=0;" edge="1" parent="WIyWlLk6GJQsqaUBKTNV-1" source="MSBUPBAipDb2ATlnMfmg-133" target="MSBUPBAipDb2ATlnMfmg-137">
          <mxGeometry relative="1" as="geometry">
            <mxPoint x="696.5" y="1800" as="targetPoint" />
            <Array as="points">
              <mxPoint x="460.5" y="2070" />
              <mxPoint x="460.5" y="1800" />
            </Array>
          </mxGeometry>
        </mxCell>
        <mxCell id="MSBUPBAipDb2ATlnMfmg-132" value="เท็จ" style="edgeStyle=orthogonalEdgeStyle;rounded=0;orthogonalLoop=1;jettySize=auto;html=1;exitX=0.5;exitY=1;exitDx=0;exitDy=0;entryX=1;entryY=0.5;entryDx=0;entryDy=0;" edge="1" parent="WIyWlLk6GJQsqaUBKTNV-1" source="MSBUPBAipDb2ATlnMfmg-133" target="MSBUPBAipDb2ATlnMfmg-140">
          <mxGeometry relative="1" as="geometry">
            <Array as="points">
              <mxPoint x="490.5" y="2110" />
              <mxPoint x="490.5" y="2110" />
            </Array>
          </mxGeometry>
        </mxCell>
        <mxCell id="MSBUPBAipDb2ATlnMfmg-133" value="เงินทอน&amp;gt;100" style="rhombus;whiteSpace=wrap;html=1;" vertex="1" parent="WIyWlLk6GJQsqaUBKTNV-1">
          <mxGeometry x="500" y="2030" width="80" height="80" as="geometry" />
        </mxCell>
        <mxCell id="MSBUPBAipDb2ATlnMfmg-134" style="edgeStyle=orthogonalEdgeStyle;rounded=0;orthogonalLoop=1;jettySize=auto;html=1;exitX=0.5;exitY=1;exitDx=0;exitDy=0;entryX=0.5;entryY=0;entryDx=0;entryDy=0;" edge="1" parent="WIyWlLk6GJQsqaUBKTNV-1" source="MSBUPBAipDb2ATlnMfmg-135" target="MSBUPBAipDb2ATlnMfmg-133">
          <mxGeometry relative="1" as="geometry" />
        </mxCell>
        <mxCell id="MSBUPBAipDb2ATlnMfmg-135" value="c=c+1" style="rounded=0;whiteSpace=wrap;html=1;" vertex="1" parent="WIyWlLk6GJQsqaUBKTNV-1">
          <mxGeometry x="480" y="1940" width="120" height="60" as="geometry" />
        </mxCell>
        <mxCell id="MSBUPBAipDb2ATlnMfmg-136" style="edgeStyle=orthogonalEdgeStyle;rounded=0;orthogonalLoop=1;jettySize=auto;html=1;exitX=0.5;exitY=1;exitDx=0;exitDy=0;entryX=0.5;entryY=0;entryDx=0;entryDy=0;" edge="1" parent="WIyWlLk6GJQsqaUBKTNV-1" source="MSBUPBAipDb2ATlnMfmg-137" target="MSBUPBAipDb2ATlnMfmg-128">
          <mxGeometry relative="1" as="geometry" />
        </mxCell>
        <mxCell id="MSBUPBAipDb2ATlnMfmg-137" value="" style="ellipse;whiteSpace=wrap;html=1;aspect=fixed;" vertex="1" parent="WIyWlLk6GJQsqaUBKTNV-1">
          <mxGeometry x="670" y="1790" width="20" height="20" as="geometry" />
        </mxCell>
        <mxCell id="MSBUPBAipDb2ATlnMfmg-138" value="A" style="shape=offPageConnector;whiteSpace=wrap;html=1;" vertex="1" parent="WIyWlLk6GJQsqaUBKTNV-1">
          <mxGeometry x="500" y="2200" width="80" height="80" as="geometry" />
        </mxCell>
        <mxCell id="MSBUPBAipDb2ATlnMfmg-139" value="เท็จ" style="edgeStyle=orthogonalEdgeStyle;rounded=0;orthogonalLoop=1;jettySize=auto;html=1;exitX=0.5;exitY=1;exitDx=0;exitDy=0;entryX=0;entryY=0.5;entryDx=0;entryDy=0;" edge="1" parent="WIyWlLk6GJQsqaUBKTNV-1" source="MSBUPBAipDb2ATlnMfmg-140" target="MSBUPBAipDb2ATlnMfmg-138">
          <mxGeometry relative="1" as="geometry">
            <mxPoint x="374" y="2240" as="targetPoint" />
          </mxGeometry>
        </mxCell>
        <mxCell id="MSBUPBAipDb2ATlnMfmg-140" value="" style="ellipse;whiteSpace=wrap;html=1;aspect=fixed;" vertex="1" parent="WIyWlLk6GJQsqaUBKTNV-1">
          <mxGeometry x="364" y="2100" width="20" height="20" as="geometry" />
        </mxCell>
        <mxCell id="MSBUPBAipDb2ATlnMfmg-141" value="ฟังก์ชัน คำนวน" style="swimlane;whiteSpace=wrap;html=1;" vertex="1" parent="WIyWlLk6GJQsqaUBKTNV-1">
          <mxGeometry x="40" y="1200" width="720" height="1090" as="geometry" />
        </mxCell>
        <mxCell id="MSBUPBAipDb2ATlnMfmg-142" style="edgeStyle=orthogonalEdgeStyle;rounded=0;orthogonalLoop=1;jettySize=auto;html=1;exitX=0.5;exitY=1;exitDx=0;exitDy=0;entryX=0.5;entryY=0;entryDx=0;entryDy=0;" edge="1" parent="WIyWlLk6GJQsqaUBKTNV-1" source="MSBUPBAipDb2ATlnMfmg-143" target="MSBUPBAipDb2ATlnMfmg-145">
          <mxGeometry relative="1" as="geometry" />
        </mxCell>
        <mxCell id="MSBUPBAipDb2ATlnMfmg-143" value="เงินทอน-50" style="rounded=0;whiteSpace=wrap;html=1;" vertex="1" parent="WIyWlLk6GJQsqaUBKTNV-1">
          <mxGeometry x="-652" y="2610" width="120" height="60" as="geometry" />
        </mxCell>
        <mxCell id="MSBUPBAipDb2ATlnMfmg-144" style="edgeStyle=orthogonalEdgeStyle;rounded=0;orthogonalLoop=1;jettySize=auto;html=1;exitX=0.5;exitY=1;exitDx=0;exitDy=0;entryX=0.5;entryY=0;entryDx=0;entryDy=0;" edge="1" parent="WIyWlLk6GJQsqaUBKTNV-1" source="MSBUPBAipDb2ATlnMfmg-145" target="MSBUPBAipDb2ATlnMfmg-147">
          <mxGeometry relative="1" as="geometry" />
        </mxCell>
        <mxCell id="MSBUPBAipDb2ATlnMfmg-145" value="d=d+1" style="rounded=0;whiteSpace=wrap;html=1;" vertex="1" parent="WIyWlLk6GJQsqaUBKTNV-1">
          <mxGeometry x="-652" y="2700" width="120" height="60" as="geometry" />
        </mxCell>
        <mxCell id="MSBUPBAipDb2ATlnMfmg-146" value="เท็จ" style="edgeStyle=orthogonalEdgeStyle;rounded=0;orthogonalLoop=1;jettySize=auto;html=1;exitX=0.5;exitY=1;exitDx=0;exitDy=0;entryX=0;entryY=0.5;entryDx=0;entryDy=0;" edge="1" parent="WIyWlLk6GJQsqaUBKTNV-1" source="MSBUPBAipDb2ATlnMfmg-147" target="MSBUPBAipDb2ATlnMfmg-183">
          <mxGeometry relative="1" as="geometry">
            <mxPoint x="-591.5999999999999" y="3180" as="targetPoint" />
          </mxGeometry>
        </mxCell>
        <mxCell id="MSBUPBAipDb2ATlnMfmg-147" value="เงินทอน&amp;gt;50" style="rhombus;whiteSpace=wrap;html=1;" vertex="1" parent="WIyWlLk6GJQsqaUBKTNV-1">
          <mxGeometry x="-632" y="2790" width="80" height="80" as="geometry" />
        </mxCell>
        <mxCell id="MSBUPBAipDb2ATlnMfmg-148" value="จริง" style="edgeStyle=orthogonalEdgeStyle;rounded=0;orthogonalLoop=1;jettySize=auto;html=1;exitX=0;exitY=0.5;exitDx=0;exitDy=0;" edge="1" parent="WIyWlLk6GJQsqaUBKTNV-1" source="MSBUPBAipDb2ATlnMfmg-149">
          <mxGeometry relative="1" as="geometry">
            <mxPoint x="-531.5" y="2639.8" as="targetPoint" />
          </mxGeometry>
        </mxCell>
        <mxCell id="MSBUPBAipDb2ATlnMfmg-149" value="เงินทอน&amp;gt;50" style="rhombus;whiteSpace=wrap;html=1;" vertex="1" parent="WIyWlLk6GJQsqaUBKTNV-1">
          <mxGeometry x="-492" y="2600" width="80" height="80" as="geometry" />
        </mxCell>
        <mxCell id="MSBUPBAipDb2ATlnMfmg-150" style="edgeStyle=orthogonalEdgeStyle;rounded=0;orthogonalLoop=1;jettySize=auto;html=1;exitX=0.5;exitY=1;exitDx=0;exitDy=0;entryX=0.5;entryY=0;entryDx=0;entryDy=0;" edge="1" parent="WIyWlLk6GJQsqaUBKTNV-1" source="MSBUPBAipDb2ATlnMfmg-151" target="MSBUPBAipDb2ATlnMfmg-149">
          <mxGeometry relative="1" as="geometry" />
        </mxCell>
        <mxCell id="MSBUPBAipDb2ATlnMfmg-151" value="" style="ellipse;whiteSpace=wrap;html=1;aspect=fixed;" vertex="1" parent="WIyWlLk6GJQsqaUBKTNV-1">
          <mxGeometry x="-462" y="2550" width="20" height="20" as="geometry" />
        </mxCell>
        <mxCell id="MSBUPBAipDb2ATlnMfmg-152" value="จริง" style="edgeStyle=orthogonalEdgeStyle;rounded=0;orthogonalLoop=1;jettySize=auto;html=1;exitX=0;exitY=0.5;exitDx=0;exitDy=0;entryX=0;entryY=0.5;entryDx=0;entryDy=0;" edge="1" parent="WIyWlLk6GJQsqaUBKTNV-1" source="MSBUPBAipDb2ATlnMfmg-147" target="MSBUPBAipDb2ATlnMfmg-151">
          <mxGeometry relative="1" as="geometry">
            <mxPoint x="-435.5" y="2560" as="targetPoint" />
            <Array as="points">
              <mxPoint x="-671.5" y="2830" />
              <mxPoint x="-671.5" y="2560" />
            </Array>
          </mxGeometry>
        </mxCell>
        <mxCell id="MSBUPBAipDb2ATlnMfmg-153" value="จริง" style="edgeStyle=orthogonalEdgeStyle;rounded=0;orthogonalLoop=1;jettySize=auto;html=1;exitX=0;exitY=0.5;exitDx=0;exitDy=0;entryX=1;entryY=0.5;entryDx=0;entryDy=0;" edge="1" parent="WIyWlLk6GJQsqaUBKTNV-1" source="MSBUPBAipDb2ATlnMfmg-155" target="MSBUPBAipDb2ATlnMfmg-157">
          <mxGeometry relative="1" as="geometry" />
        </mxCell>
        <mxCell id="MSBUPBAipDb2ATlnMfmg-154" value="เท็จ" style="edgeStyle=orthogonalEdgeStyle;rounded=0;orthogonalLoop=1;jettySize=auto;html=1;exitX=1;exitY=0.5;exitDx=0;exitDy=0;entryX=0.5;entryY=0;entryDx=0;entryDy=0;" edge="1" parent="WIyWlLk6GJQsqaUBKTNV-1" source="MSBUPBAipDb2ATlnMfmg-155" target="MSBUPBAipDb2ATlnMfmg-176">
          <mxGeometry relative="1" as="geometry">
            <mxPoint x="-125.5" y="2790" as="targetPoint" />
          </mxGeometry>
        </mxCell>
        <mxCell id="MSBUPBAipDb2ATlnMfmg-155" value="เงินทอน&amp;gt;20" style="rhombus;whiteSpace=wrap;html=1;" vertex="1" parent="WIyWlLk6GJQsqaUBKTNV-1">
          <mxGeometry x="-332" y="2750" width="80" height="80" as="geometry" />
        </mxCell>
        <mxCell id="MSBUPBAipDb2ATlnMfmg-156" style="edgeStyle=orthogonalEdgeStyle;rounded=0;orthogonalLoop=1;jettySize=auto;html=1;exitX=0.5;exitY=1;exitDx=0;exitDy=0;entryX=0.5;entryY=0;entryDx=0;entryDy=0;" edge="1" parent="WIyWlLk6GJQsqaUBKTNV-1" source="MSBUPBAipDb2ATlnMfmg-157" target="MSBUPBAipDb2ATlnMfmg-162">
          <mxGeometry relative="1" as="geometry" />
        </mxCell>
        <mxCell id="MSBUPBAipDb2ATlnMfmg-157" value="เงินทอน-20" style="rounded=0;whiteSpace=wrap;html=1;" vertex="1" parent="WIyWlLk6GJQsqaUBKTNV-1">
          <mxGeometry x="-492" y="2760" width="120" height="60" as="geometry" />
        </mxCell>
        <mxCell id="MSBUPBAipDb2ATlnMfmg-158" value="จริง" style="edgeStyle=orthogonalEdgeStyle;rounded=0;orthogonalLoop=1;jettySize=auto;html=1;exitX=0;exitY=0.5;exitDx=0;exitDy=0;entryX=0;entryY=0.5;entryDx=0;entryDy=0;" edge="1" parent="WIyWlLk6GJQsqaUBKTNV-1" source="MSBUPBAipDb2ATlnMfmg-160" target="MSBUPBAipDb2ATlnMfmg-164">
          <mxGeometry relative="1" as="geometry">
            <mxPoint x="-275.5" y="2710" as="targetPoint" />
            <Array as="points">
              <mxPoint x="-511.5" y="2980" />
              <mxPoint x="-511.5" y="2710" />
            </Array>
          </mxGeometry>
        </mxCell>
        <mxCell id="MSBUPBAipDb2ATlnMfmg-159" value="เท็จ" style="edgeStyle=orthogonalEdgeStyle;rounded=0;orthogonalLoop=1;jettySize=auto;html=1;exitX=0.5;exitY=1;exitDx=0;exitDy=0;entryX=0.5;entryY=0;entryDx=0;entryDy=0;" edge="1" parent="WIyWlLk6GJQsqaUBKTNV-1" source="MSBUPBAipDb2ATlnMfmg-160" target="MSBUPBAipDb2ATlnMfmg-183">
          <mxGeometry relative="1" as="geometry" />
        </mxCell>
        <mxCell id="MSBUPBAipDb2ATlnMfmg-160" value="เงินทอน&amp;gt;20" style="rhombus;whiteSpace=wrap;html=1;" vertex="1" parent="WIyWlLk6GJQsqaUBKTNV-1">
          <mxGeometry x="-472" y="2940" width="80" height="80" as="geometry" />
        </mxCell>
        <mxCell id="MSBUPBAipDb2ATlnMfmg-161" style="edgeStyle=orthogonalEdgeStyle;rounded=0;orthogonalLoop=1;jettySize=auto;html=1;exitX=0.5;exitY=1;exitDx=0;exitDy=0;entryX=0.5;entryY=0;entryDx=0;entryDy=0;" edge="1" parent="WIyWlLk6GJQsqaUBKTNV-1" source="MSBUPBAipDb2ATlnMfmg-162" target="MSBUPBAipDb2ATlnMfmg-160">
          <mxGeometry relative="1" as="geometry" />
        </mxCell>
        <mxCell id="MSBUPBAipDb2ATlnMfmg-162" value="e=e+1" style="rounded=0;whiteSpace=wrap;html=1;" vertex="1" parent="WIyWlLk6GJQsqaUBKTNV-1">
          <mxGeometry x="-492" y="2850" width="120" height="60" as="geometry" />
        </mxCell>
        <mxCell id="MSBUPBAipDb2ATlnMfmg-163" style="edgeStyle=orthogonalEdgeStyle;rounded=0;orthogonalLoop=1;jettySize=auto;html=1;exitX=0.5;exitY=1;exitDx=0;exitDy=0;entryX=0.5;entryY=0;entryDx=0;entryDy=0;" edge="1" parent="WIyWlLk6GJQsqaUBKTNV-1" source="MSBUPBAipDb2ATlnMfmg-164" target="MSBUPBAipDb2ATlnMfmg-155">
          <mxGeometry relative="1" as="geometry" />
        </mxCell>
        <mxCell id="MSBUPBAipDb2ATlnMfmg-164" value="" style="ellipse;whiteSpace=wrap;html=1;aspect=fixed;" vertex="1" parent="WIyWlLk6GJQsqaUBKTNV-1">
          <mxGeometry x="-302" y="2700" width="20" height="20" as="geometry" />
        </mxCell>
        <mxCell id="MSBUPBAipDb2ATlnMfmg-165" value="จริง" style="edgeStyle=orthogonalEdgeStyle;rounded=0;orthogonalLoop=1;jettySize=auto;html=1;exitX=0;exitY=0.5;exitDx=0;exitDy=0;entryX=1;entryY=0.5;entryDx=0;entryDy=0;" edge="1" parent="WIyWlLk6GJQsqaUBKTNV-1" source="MSBUPBAipDb2ATlnMfmg-167" target="MSBUPBAipDb2ATlnMfmg-169">
          <mxGeometry relative="1" as="geometry" />
        </mxCell>
        <mxCell id="MSBUPBAipDb2ATlnMfmg-166" value="เท็จ" style="edgeStyle=orthogonalEdgeStyle;rounded=0;orthogonalLoop=1;jettySize=auto;html=1;exitX=0.5;exitY=1;exitDx=0;exitDy=0;entryX=1;entryY=0.5;entryDx=0;entryDy=0;fillColor=#f8cecc;strokeColor=#b85450;" edge="1" parent="WIyWlLk6GJQsqaUBKTNV-1" source="MSBUPBAipDb2ATlnMfmg-167" target="MSBUPBAipDb2ATlnMfmg-181">
          <mxGeometry relative="1" as="geometry">
            <mxPoint x="-126" y="3280" as="targetPoint" />
          </mxGeometry>
        </mxCell>
        <mxCell id="MSBUPBAipDb2ATlnMfmg-167" value="เงินทอน&amp;gt;10" style="rhombus;whiteSpace=wrap;html=1;" vertex="1" parent="WIyWlLk6GJQsqaUBKTNV-1">
          <mxGeometry x="-166" y="2900" width="80" height="80" as="geometry" />
        </mxCell>
        <mxCell id="MSBUPBAipDb2ATlnMfmg-168" style="edgeStyle=orthogonalEdgeStyle;rounded=0;orthogonalLoop=1;jettySize=auto;html=1;exitX=0.5;exitY=1;exitDx=0;exitDy=0;entryX=0.5;entryY=0;entryDx=0;entryDy=0;" edge="1" parent="WIyWlLk6GJQsqaUBKTNV-1" source="MSBUPBAipDb2ATlnMfmg-169" target="MSBUPBAipDb2ATlnMfmg-174">
          <mxGeometry relative="1" as="geometry" />
        </mxCell>
        <mxCell id="MSBUPBAipDb2ATlnMfmg-169" value="เงินทอน-10" style="rounded=0;whiteSpace=wrap;html=1;" vertex="1" parent="WIyWlLk6GJQsqaUBKTNV-1">
          <mxGeometry x="-326" y="2910" width="120" height="60" as="geometry" />
        </mxCell>
        <mxCell id="MSBUPBAipDb2ATlnMfmg-170" value="จริง" style="edgeStyle=orthogonalEdgeStyle;rounded=0;orthogonalLoop=1;jettySize=auto;html=1;exitX=0;exitY=0.5;exitDx=0;exitDy=0;entryX=0;entryY=0.5;entryDx=0;entryDy=0;" edge="1" parent="WIyWlLk6GJQsqaUBKTNV-1" source="MSBUPBAipDb2ATlnMfmg-172" target="MSBUPBAipDb2ATlnMfmg-176">
          <mxGeometry relative="1" as="geometry">
            <mxPoint x="-109.5" y="2860" as="targetPoint" />
            <Array as="points">
              <mxPoint x="-345.5" y="3130" />
              <mxPoint x="-345.5" y="2860" />
            </Array>
          </mxGeometry>
        </mxCell>
        <mxCell id="MSBUPBAipDb2ATlnMfmg-171" value="เท็จ" style="edgeStyle=orthogonalEdgeStyle;rounded=0;orthogonalLoop=1;jettySize=auto;html=1;exitX=0.5;exitY=1;exitDx=0;exitDy=0;entryX=1;entryY=0.5;entryDx=0;entryDy=0;" edge="1" parent="WIyWlLk6GJQsqaUBKTNV-1" source="MSBUPBAipDb2ATlnMfmg-172" target="MSBUPBAipDb2ATlnMfmg-183">
          <mxGeometry relative="1" as="geometry">
            <Array as="points">
              <mxPoint x="-266" y="3171" />
            </Array>
          </mxGeometry>
        </mxCell>
        <mxCell id="MSBUPBAipDb2ATlnMfmg-172" value="เงินทอน&amp;gt;10" style="rhombus;whiteSpace=wrap;html=1;" vertex="1" parent="WIyWlLk6GJQsqaUBKTNV-1">
          <mxGeometry x="-306" y="3090" width="80" height="80" as="geometry" />
        </mxCell>
        <mxCell id="MSBUPBAipDb2ATlnMfmg-173" style="edgeStyle=orthogonalEdgeStyle;rounded=0;orthogonalLoop=1;jettySize=auto;html=1;exitX=0.5;exitY=1;exitDx=0;exitDy=0;entryX=0.5;entryY=0;entryDx=0;entryDy=0;" edge="1" parent="WIyWlLk6GJQsqaUBKTNV-1" source="MSBUPBAipDb2ATlnMfmg-174" target="MSBUPBAipDb2ATlnMfmg-172">
          <mxGeometry relative="1" as="geometry" />
        </mxCell>
        <mxCell id="MSBUPBAipDb2ATlnMfmg-174" value="f=f+1" style="rounded=0;whiteSpace=wrap;html=1;" vertex="1" parent="WIyWlLk6GJQsqaUBKTNV-1">
          <mxGeometry x="-326" y="3000" width="120" height="60" as="geometry" />
        </mxCell>
        <mxCell id="MSBUPBAipDb2ATlnMfmg-175" style="edgeStyle=orthogonalEdgeStyle;rounded=0;orthogonalLoop=1;jettySize=auto;html=1;exitX=0.5;exitY=1;exitDx=0;exitDy=0;entryX=0.5;entryY=0;entryDx=0;entryDy=0;" edge="1" parent="WIyWlLk6GJQsqaUBKTNV-1" source="MSBUPBAipDb2ATlnMfmg-176" target="MSBUPBAipDb2ATlnMfmg-167">
          <mxGeometry relative="1" as="geometry" />
        </mxCell>
        <mxCell id="MSBUPBAipDb2ATlnMfmg-176" value="" style="ellipse;whiteSpace=wrap;html=1;aspect=fixed;" vertex="1" parent="WIyWlLk6GJQsqaUBKTNV-1">
          <mxGeometry x="-136" y="2850" width="20" height="20" as="geometry" />
        </mxCell>
        <mxCell id="MSBUPBAipDb2ATlnMfmg-177" value="เท็จ" style="edgeStyle=orthogonalEdgeStyle;rounded=0;orthogonalLoop=1;jettySize=auto;html=1;exitX=1;exitY=0.5;exitDx=0;exitDy=0;entryX=0.5;entryY=0;entryDx=0;entryDy=0;" edge="1" parent="WIyWlLk6GJQsqaUBKTNV-1" target="MSBUPBAipDb2ATlnMfmg-164">
          <mxGeometry relative="1" as="geometry">
            <mxPoint x="-295.5" y="2640" as="targetPoint" />
            <mxPoint x="-414.5" y="2640" as="sourcePoint" />
          </mxGeometry>
        </mxCell>
        <mxCell id="MSBUPBAipDb2ATlnMfmg-178" value="เท็จ" style="edgeStyle=orthogonalEdgeStyle;rounded=0;orthogonalLoop=1;jettySize=auto;html=1;exitX=1;exitY=0.5;exitDx=0;exitDy=0;entryX=0.5;entryY=0;entryDx=0;entryDy=0;fillColor=#f8cecc;strokeColor=#b85450;" edge="1" parent="WIyWlLk6GJQsqaUBKTNV-1" source="MSBUPBAipDb2ATlnMfmg-180" target="MSBUPBAipDb2ATlnMfmg-151">
          <mxGeometry relative="1" as="geometry">
            <mxPoint x="-380" y="2520" as="targetPoint" />
          </mxGeometry>
        </mxCell>
        <mxCell id="MSBUPBAipDb2ATlnMfmg-179" value="เท็จ" style="edgeStyle=orthogonalEdgeStyle;rounded=0;orthogonalLoop=1;jettySize=auto;html=1;exitX=0;exitY=0.5;exitDx=0;exitDy=0;entryX=0;entryY=0.5;entryDx=0;entryDy=0;" edge="1" parent="WIyWlLk6GJQsqaUBKTNV-1" source="MSBUPBAipDb2ATlnMfmg-180" target="MSBUPBAipDb2ATlnMfmg-183">
          <mxGeometry relative="1" as="geometry">
            <mxPoint x="-740" y="3170" as="targetPoint" />
            <Array as="points">
              <mxPoint x="-740" y="2440" />
              <mxPoint x="-740" y="3171" />
            </Array>
          </mxGeometry>
        </mxCell>
        <mxCell id="MSBUPBAipDb2ATlnMfmg-180" value="A" style="shape=offPageConnector;whiteSpace=wrap;html=1;" vertex="1" parent="WIyWlLk6GJQsqaUBKTNV-1">
          <mxGeometry x="-492" y="2400" width="80" height="80" as="geometry" />
        </mxCell>
        <mxCell id="MSBUPBAipDb2ATlnMfmg-181" value="B" style="shape=offPageConnector;whiteSpace=wrap;html=1;" vertex="1" parent="WIyWlLk6GJQsqaUBKTNV-1">
          <mxGeometry x="-306" y="3230" width="80" height="80" as="geometry" />
        </mxCell>
        <mxCell id="MSBUPBAipDb2ATlnMfmg-182" value="เท็จ" style="edgeStyle=orthogonalEdgeStyle;rounded=0;orthogonalLoop=1;jettySize=auto;html=1;exitX=0.5;exitY=1;exitDx=0;exitDy=0;entryX=0;entryY=0.5;entryDx=0;entryDy=0;" edge="1" parent="WIyWlLk6GJQsqaUBKTNV-1" source="MSBUPBAipDb2ATlnMfmg-183" target="MSBUPBAipDb2ATlnMfmg-181">
          <mxGeometry relative="1" as="geometry">
            <mxPoint x="-431.5999999999999" y="3280" as="targetPoint" />
          </mxGeometry>
        </mxCell>
        <mxCell id="MSBUPBAipDb2ATlnMfmg-183" value="" style="ellipse;whiteSpace=wrap;html=1;aspect=fixed;" vertex="1" parent="WIyWlLk6GJQsqaUBKTNV-1">
          <mxGeometry x="-442.75" y="3160" width="21.5" height="21.5" as="geometry" />
        </mxCell>
        <mxCell id="MSBUPBAipDb2ATlnMfmg-184" value="ฟังก์ชัน คำนวน" style="swimlane;whiteSpace=wrap;html=1;" vertex="1" parent="WIyWlLk6GJQsqaUBKTNV-1">
          <mxGeometry x="-760" y="2360" width="720" height="1090" as="geometry" />
        </mxCell>
        <mxCell id="MSBUPBAipDb2ATlnMfmg-185" style="edgeStyle=orthogonalEdgeStyle;rounded=0;orthogonalLoop=1;jettySize=auto;html=1;exitX=0.5;exitY=1;exitDx=0;exitDy=0;entryX=0.5;entryY=0;entryDx=0;entryDy=0;" edge="1" parent="WIyWlLk6GJQsqaUBKTNV-1" source="MSBUPBAipDb2ATlnMfmg-186" target="MSBUPBAipDb2ATlnMfmg-188">
          <mxGeometry relative="1" as="geometry" />
        </mxCell>
        <mxCell id="MSBUPBAipDb2ATlnMfmg-186" value="เงินทอน-5" style="rounded=0;whiteSpace=wrap;html=1;" vertex="1" parent="WIyWlLk6GJQsqaUBKTNV-1">
          <mxGeometry x="164.39" y="2620" width="120" height="60" as="geometry" />
        </mxCell>
        <mxCell id="MSBUPBAipDb2ATlnMfmg-187" style="edgeStyle=orthogonalEdgeStyle;rounded=0;orthogonalLoop=1;jettySize=auto;html=1;exitX=0.5;exitY=1;exitDx=0;exitDy=0;entryX=0.5;entryY=0;entryDx=0;entryDy=0;" edge="1" parent="WIyWlLk6GJQsqaUBKTNV-1" source="MSBUPBAipDb2ATlnMfmg-188" target="MSBUPBAipDb2ATlnMfmg-190">
          <mxGeometry relative="1" as="geometry" />
        </mxCell>
        <mxCell id="MSBUPBAipDb2ATlnMfmg-188" value="g=g+1" style="rounded=0;whiteSpace=wrap;html=1;" vertex="1" parent="WIyWlLk6GJQsqaUBKTNV-1">
          <mxGeometry x="164.39" y="2710" width="120" height="60" as="geometry" />
        </mxCell>
        <mxCell id="MSBUPBAipDb2ATlnMfmg-189" value="เท็จ" style="edgeStyle=orthogonalEdgeStyle;rounded=0;orthogonalLoop=1;jettySize=auto;html=1;exitX=0.5;exitY=1;exitDx=0;exitDy=0;entryX=0;entryY=0.5;entryDx=0;entryDy=0;" edge="1" parent="WIyWlLk6GJQsqaUBKTNV-1" source="MSBUPBAipDb2ATlnMfmg-190" target="MSBUPBAipDb2ATlnMfmg-226">
          <mxGeometry relative="1" as="geometry">
            <mxPoint x="224" y="3180" as="targetPoint" />
          </mxGeometry>
        </mxCell>
        <mxCell id="MSBUPBAipDb2ATlnMfmg-190" value="เงินทอน&amp;gt;5" style="rhombus;whiteSpace=wrap;html=1;" vertex="1" parent="WIyWlLk6GJQsqaUBKTNV-1">
          <mxGeometry x="184.38999999999987" y="2800" width="80" height="80" as="geometry" />
        </mxCell>
        <mxCell id="MSBUPBAipDb2ATlnMfmg-191" value="จริง" style="edgeStyle=orthogonalEdgeStyle;rounded=0;orthogonalLoop=1;jettySize=auto;html=1;exitX=0;exitY=0.5;exitDx=0;exitDy=0;entryX=1;entryY=0.5;entryDx=0;entryDy=0;" edge="1" parent="WIyWlLk6GJQsqaUBKTNV-1" source="MSBUPBAipDb2ATlnMfmg-192" target="MSBUPBAipDb2ATlnMfmg-186">
          <mxGeometry relative="1" as="geometry" />
        </mxCell>
        <mxCell id="MSBUPBAipDb2ATlnMfmg-192" value="เงินทอน&amp;gt;5" style="rhombus;whiteSpace=wrap;html=1;" vertex="1" parent="WIyWlLk6GJQsqaUBKTNV-1">
          <mxGeometry x="324.3899999999999" y="2610" width="80" height="80" as="geometry" />
        </mxCell>
        <mxCell id="MSBUPBAipDb2ATlnMfmg-193" style="edgeStyle=orthogonalEdgeStyle;rounded=0;orthogonalLoop=1;jettySize=auto;html=1;exitX=0.5;exitY=1;exitDx=0;exitDy=0;entryX=0.5;entryY=0;entryDx=0;entryDy=0;" edge="1" parent="WIyWlLk6GJQsqaUBKTNV-1" source="MSBUPBAipDb2ATlnMfmg-194" target="MSBUPBAipDb2ATlnMfmg-192">
          <mxGeometry relative="1" as="geometry" />
        </mxCell>
        <mxCell id="MSBUPBAipDb2ATlnMfmg-194" value="" style="ellipse;whiteSpace=wrap;html=1;aspect=fixed;" vertex="1" parent="WIyWlLk6GJQsqaUBKTNV-1">
          <mxGeometry x="354.3899999999999" y="2560" width="20" height="20" as="geometry" />
        </mxCell>
        <mxCell id="MSBUPBAipDb2ATlnMfmg-195" value="จริง" style="edgeStyle=orthogonalEdgeStyle;rounded=0;orthogonalLoop=1;jettySize=auto;html=1;exitX=0;exitY=0.5;exitDx=0;exitDy=0;entryX=0;entryY=0.5;entryDx=0;entryDy=0;" edge="1" parent="WIyWlLk6GJQsqaUBKTNV-1" source="MSBUPBAipDb2ATlnMfmg-190" target="MSBUPBAipDb2ATlnMfmg-194">
          <mxGeometry relative="1" as="geometry">
            <mxPoint x="380.8899999999999" y="2570" as="targetPoint" />
            <Array as="points">
              <mxPoint x="144.89" y="2840" />
              <mxPoint x="144.89" y="2570" />
            </Array>
          </mxGeometry>
        </mxCell>
        <mxCell id="MSBUPBAipDb2ATlnMfmg-196" value="จริง" style="edgeStyle=orthogonalEdgeStyle;rounded=0;orthogonalLoop=1;jettySize=auto;html=1;exitX=0;exitY=0.5;exitDx=0;exitDy=0;entryX=1;entryY=0.5;entryDx=0;entryDy=0;" edge="1" parent="WIyWlLk6GJQsqaUBKTNV-1" source="MSBUPBAipDb2ATlnMfmg-197" target="MSBUPBAipDb2ATlnMfmg-199">
          <mxGeometry relative="1" as="geometry" />
        </mxCell>
        <mxCell id="MSBUPBAipDb2ATlnMfmg-197" value="เงินทอน&amp;gt;2" style="rhombus;whiteSpace=wrap;html=1;" vertex="1" parent="WIyWlLk6GJQsqaUBKTNV-1">
          <mxGeometry x="488.3899999999999" y="2760" width="80" height="80" as="geometry" />
        </mxCell>
        <mxCell id="MSBUPBAipDb2ATlnMfmg-198" style="edgeStyle=orthogonalEdgeStyle;rounded=0;orthogonalLoop=1;jettySize=auto;html=1;exitX=0.5;exitY=1;exitDx=0;exitDy=0;entryX=0.5;entryY=0;entryDx=0;entryDy=0;" edge="1" parent="WIyWlLk6GJQsqaUBKTNV-1" source="MSBUPBAipDb2ATlnMfmg-199" target="MSBUPBAipDb2ATlnMfmg-204">
          <mxGeometry relative="1" as="geometry" />
        </mxCell>
        <mxCell id="MSBUPBAipDb2ATlnMfmg-199" value="เงินทอน-2" style="rounded=0;whiteSpace=wrap;html=1;" vertex="1" parent="WIyWlLk6GJQsqaUBKTNV-1">
          <mxGeometry x="328.3899999999999" y="2770" width="120" height="60" as="geometry" />
        </mxCell>
        <mxCell id="MSBUPBAipDb2ATlnMfmg-200" value="จริง" style="edgeStyle=orthogonalEdgeStyle;rounded=0;orthogonalLoop=1;jettySize=auto;html=1;exitX=0;exitY=0.5;exitDx=0;exitDy=0;entryX=0;entryY=0.5;entryDx=0;entryDy=0;" edge="1" parent="WIyWlLk6GJQsqaUBKTNV-1" source="MSBUPBAipDb2ATlnMfmg-202" target="MSBUPBAipDb2ATlnMfmg-206">
          <mxGeometry relative="1" as="geometry">
            <mxPoint x="544.8899999999999" y="2720" as="targetPoint" />
            <Array as="points">
              <mxPoint x="308.8899999999999" y="2990" />
              <mxPoint x="308.8899999999999" y="2720" />
            </Array>
          </mxGeometry>
        </mxCell>
        <mxCell id="MSBUPBAipDb2ATlnMfmg-201" value="เท็จ" style="edgeStyle=orthogonalEdgeStyle;rounded=0;orthogonalLoop=1;jettySize=auto;html=1;exitX=0.5;exitY=1;exitDx=0;exitDy=0;entryX=0;entryY=0;entryDx=0;entryDy=0;" edge="1" parent="WIyWlLk6GJQsqaUBKTNV-1" source="MSBUPBAipDb2ATlnMfmg-202" target="MSBUPBAipDb2ATlnMfmg-226">
          <mxGeometry relative="1" as="geometry">
            <mxPoint x="388" y="3230" as="targetPoint" />
            <Array as="points">
              <mxPoint x="388" y="3213" />
            </Array>
          </mxGeometry>
        </mxCell>
        <mxCell id="MSBUPBAipDb2ATlnMfmg-202" value="เงินทอน&amp;gt;2" style="rhombus;whiteSpace=wrap;html=1;" vertex="1" parent="WIyWlLk6GJQsqaUBKTNV-1">
          <mxGeometry x="348.3899999999999" y="2950" width="80" height="80" as="geometry" />
        </mxCell>
        <mxCell id="MSBUPBAipDb2ATlnMfmg-203" style="edgeStyle=orthogonalEdgeStyle;rounded=0;orthogonalLoop=1;jettySize=auto;html=1;exitX=0.5;exitY=1;exitDx=0;exitDy=0;entryX=0.5;entryY=0;entryDx=0;entryDy=0;" edge="1" parent="WIyWlLk6GJQsqaUBKTNV-1" source="MSBUPBAipDb2ATlnMfmg-204" target="MSBUPBAipDb2ATlnMfmg-202">
          <mxGeometry relative="1" as="geometry" />
        </mxCell>
        <mxCell id="MSBUPBAipDb2ATlnMfmg-204" value="h=h+1" style="rounded=0;whiteSpace=wrap;html=1;" vertex="1" parent="WIyWlLk6GJQsqaUBKTNV-1">
          <mxGeometry x="328.3899999999999" y="2860" width="120" height="60" as="geometry" />
        </mxCell>
        <mxCell id="MSBUPBAipDb2ATlnMfmg-205" style="edgeStyle=orthogonalEdgeStyle;rounded=0;orthogonalLoop=1;jettySize=auto;html=1;exitX=0.5;exitY=1;exitDx=0;exitDy=0;entryX=0.5;entryY=0;entryDx=0;entryDy=0;" edge="1" parent="WIyWlLk6GJQsqaUBKTNV-1" source="MSBUPBAipDb2ATlnMfmg-206" target="MSBUPBAipDb2ATlnMfmg-197">
          <mxGeometry relative="1" as="geometry" />
        </mxCell>
        <mxCell id="MSBUPBAipDb2ATlnMfmg-206" value="" style="ellipse;whiteSpace=wrap;html=1;aspect=fixed;" vertex="1" parent="WIyWlLk6GJQsqaUBKTNV-1">
          <mxGeometry x="518.3899999999999" y="2710" width="20" height="20" as="geometry" />
        </mxCell>
        <mxCell id="MSBUPBAipDb2ATlnMfmg-207" style="edgeStyle=orthogonalEdgeStyle;rounded=0;orthogonalLoop=1;jettySize=auto;html=1;exitX=0.5;exitY=1;exitDx=0;exitDy=0;entryX=0.5;entryY=0;entryDx=0;entryDy=0;" edge="1" parent="WIyWlLk6GJQsqaUBKTNV-1" source="MSBUPBAipDb2ATlnMfmg-208" target="MSBUPBAipDb2ATlnMfmg-210">
          <mxGeometry relative="1" as="geometry" />
        </mxCell>
        <mxCell id="MSBUPBAipDb2ATlnMfmg-208" value="เงินทอน-1" style="rounded=0;whiteSpace=wrap;html=1;" vertex="1" parent="WIyWlLk6GJQsqaUBKTNV-1">
          <mxGeometry x="488.3899999999999" y="2920" width="120" height="60" as="geometry" />
        </mxCell>
        <mxCell id="MSBUPBAipDb2ATlnMfmg-209" style="edgeStyle=orthogonalEdgeStyle;rounded=0;orthogonalLoop=1;jettySize=auto;html=1;exitX=0.5;exitY=1;exitDx=0;exitDy=0;entryX=0.5;entryY=0;entryDx=0;entryDy=0;" edge="1" parent="WIyWlLk6GJQsqaUBKTNV-1" source="MSBUPBAipDb2ATlnMfmg-210" target="MSBUPBAipDb2ATlnMfmg-212">
          <mxGeometry relative="1" as="geometry" />
        </mxCell>
        <mxCell id="MSBUPBAipDb2ATlnMfmg-210" value="i=i+1" style="rounded=0;whiteSpace=wrap;html=1;" vertex="1" parent="WIyWlLk6GJQsqaUBKTNV-1">
          <mxGeometry x="488.3899999999999" y="3010" width="120" height="60" as="geometry" />
        </mxCell>
        <mxCell id="MSBUPBAipDb2ATlnMfmg-211" value="เท็จ" style="edgeStyle=orthogonalEdgeStyle;rounded=0;orthogonalLoop=1;jettySize=auto;html=1;exitX=0.5;exitY=1;exitDx=0;exitDy=0;entryX=0.5;entryY=0;entryDx=0;entryDy=0;" edge="1" parent="WIyWlLk6GJQsqaUBKTNV-1" source="MSBUPBAipDb2ATlnMfmg-212" target="MSBUPBAipDb2ATlnMfmg-226">
          <mxGeometry relative="1" as="geometry" />
        </mxCell>
        <mxCell id="MSBUPBAipDb2ATlnMfmg-212" value="เงินทอน&amp;gt;1" style="rhombus;whiteSpace=wrap;html=1;" vertex="1" parent="WIyWlLk6GJQsqaUBKTNV-1">
          <mxGeometry x="508.3899999999999" y="3100" width="80" height="80" as="geometry" />
        </mxCell>
        <mxCell id="MSBUPBAipDb2ATlnMfmg-213" value="จริง" style="edgeStyle=orthogonalEdgeStyle;rounded=0;orthogonalLoop=1;jettySize=auto;html=1;exitX=0;exitY=0.5;exitDx=0;exitDy=0;" edge="1" parent="WIyWlLk6GJQsqaUBKTNV-1" source="MSBUPBAipDb2ATlnMfmg-215">
          <mxGeometry relative="1" as="geometry">
            <mxPoint x="608.8899999999999" y="2950.2" as="targetPoint" />
          </mxGeometry>
        </mxCell>
        <mxCell id="MSBUPBAipDb2ATlnMfmg-214" value="เท็จ" style="edgeStyle=orthogonalEdgeStyle;rounded=0;orthogonalLoop=1;jettySize=auto;html=1;exitX=0.5;exitY=1;exitDx=0;exitDy=0;entryX=1;entryY=0.5;entryDx=0;entryDy=0;" edge="1" parent="WIyWlLk6GJQsqaUBKTNV-1" source="MSBUPBAipDb2ATlnMfmg-215" target="MSBUPBAipDb2ATlnMfmg-226">
          <mxGeometry relative="1" as="geometry">
            <mxPoint x="688" y="3220" as="targetPoint" />
          </mxGeometry>
        </mxCell>
        <mxCell id="MSBUPBAipDb2ATlnMfmg-215" value="เงินทอน&amp;gt;1" style="rhombus;whiteSpace=wrap;html=1;" vertex="1" parent="WIyWlLk6GJQsqaUBKTNV-1">
          <mxGeometry x="648.3899999999999" y="2910" width="80" height="80" as="geometry" />
        </mxCell>
        <mxCell id="MSBUPBAipDb2ATlnMfmg-216" style="edgeStyle=orthogonalEdgeStyle;rounded=0;orthogonalLoop=1;jettySize=auto;html=1;exitX=0.5;exitY=1;exitDx=0;exitDy=0;entryX=0.5;entryY=0;entryDx=0;entryDy=0;" edge="1" parent="WIyWlLk6GJQsqaUBKTNV-1" source="MSBUPBAipDb2ATlnMfmg-217" target="MSBUPBAipDb2ATlnMfmg-215">
          <mxGeometry relative="1" as="geometry" />
        </mxCell>
        <mxCell id="MSBUPBAipDb2ATlnMfmg-217" value="" style="ellipse;whiteSpace=wrap;html=1;aspect=fixed;" vertex="1" parent="WIyWlLk6GJQsqaUBKTNV-1">
          <mxGeometry x="678.3899999999999" y="2860" width="20" height="20" as="geometry" />
        </mxCell>
        <mxCell id="MSBUPBAipDb2ATlnMfmg-218" value="เท็จ" style="edgeStyle=orthogonalEdgeStyle;rounded=0;orthogonalLoop=1;jettySize=auto;html=1;entryX=0.5;entryY=0;entryDx=0;entryDy=0;" edge="1" parent="WIyWlLk6GJQsqaUBKTNV-1" target="MSBUPBAipDb2ATlnMfmg-217">
          <mxGeometry relative="1" as="geometry">
            <mxPoint x="688.8899999999999" y="2800" as="targetPoint" />
            <mxPoint x="568.8899999999999" y="2800" as="sourcePoint" />
            <Array as="points">
              <mxPoint x="688.8899999999999" y="2800" />
            </Array>
          </mxGeometry>
        </mxCell>
        <mxCell id="MSBUPBAipDb2ATlnMfmg-219" value="จริง" style="edgeStyle=orthogonalEdgeStyle;rounded=0;orthogonalLoop=1;jettySize=auto;html=1;exitX=0;exitY=0.5;exitDx=0;exitDy=0;entryX=0;entryY=0.5;entryDx=0;entryDy=0;" edge="1" parent="WIyWlLk6GJQsqaUBKTNV-1" source="MSBUPBAipDb2ATlnMfmg-212" target="MSBUPBAipDb2ATlnMfmg-217">
          <mxGeometry relative="1" as="geometry">
            <mxPoint x="704.8899999999999" y="2870" as="targetPoint" />
            <Array as="points">
              <mxPoint x="468.8899999999999" y="3140" />
              <mxPoint x="468.8899999999999" y="2870" />
            </Array>
          </mxGeometry>
        </mxCell>
        <mxCell id="MSBUPBAipDb2ATlnMfmg-220" value="เท็จ" style="edgeStyle=orthogonalEdgeStyle;rounded=0;orthogonalLoop=1;jettySize=auto;html=1;exitX=1;exitY=0.5;exitDx=0;exitDy=0;entryX=0.5;entryY=0;entryDx=0;entryDy=0;" edge="1" parent="WIyWlLk6GJQsqaUBKTNV-1" target="MSBUPBAipDb2ATlnMfmg-206">
          <mxGeometry relative="1" as="geometry">
            <mxPoint x="528.8899999999999" y="2650" as="targetPoint" />
            <mxPoint x="402.8899999999999" y="2650" as="sourcePoint" />
          </mxGeometry>
        </mxCell>
        <mxCell id="MSBUPBAipDb2ATlnMfmg-221" value="เท็จ" style="edgeStyle=orthogonalEdgeStyle;rounded=0;orthogonalLoop=1;jettySize=auto;html=1;exitX=1;exitY=0.5;exitDx=0;exitDy=0;entryX=0.5;entryY=0;entryDx=0;entryDy=0;fillColor=#f8cecc;strokeColor=#b85450;" edge="1" parent="WIyWlLk6GJQsqaUBKTNV-1" source="MSBUPBAipDb2ATlnMfmg-223" target="MSBUPBAipDb2ATlnMfmg-194">
          <mxGeometry relative="1" as="geometry">
            <mxPoint x="445" y="2540" as="targetPoint" />
          </mxGeometry>
        </mxCell>
        <mxCell id="MSBUPBAipDb2ATlnMfmg-222" value="เท็จ" style="edgeStyle=orthogonalEdgeStyle;rounded=0;orthogonalLoop=1;jettySize=auto;html=1;exitX=0;exitY=0.5;exitDx=0;exitDy=0;entryX=0;entryY=1;entryDx=0;entryDy=0;" edge="1" parent="WIyWlLk6GJQsqaUBKTNV-1" source="MSBUPBAipDb2ATlnMfmg-223" target="MSBUPBAipDb2ATlnMfmg-226">
          <mxGeometry relative="1" as="geometry">
            <mxPoint x="115" y="3230.800048828125" as="targetPoint" />
            <Array as="points">
              <mxPoint x="85" y="2450" />
              <mxPoint x="85" y="3227" />
            </Array>
          </mxGeometry>
        </mxCell>
        <mxCell id="MSBUPBAipDb2ATlnMfmg-223" value="B" style="shape=offPageConnector;whiteSpace=wrap;html=1;" vertex="1" parent="WIyWlLk6GJQsqaUBKTNV-1">
          <mxGeometry x="324" y="2410" width="80" height="80" as="geometry" />
        </mxCell>
        <mxCell id="MSBUPBAipDb2ATlnMfmg-224" value="จบ" style="ellipse;whiteSpace=wrap;html=1;" vertex="1" parent="WIyWlLk6GJQsqaUBKTNV-1">
          <mxGeometry x="490.0899999999999" y="3255" width="116.61" height="50" as="geometry" />
        </mxCell>
        <mxCell id="MSBUPBAipDb2ATlnMfmg-225" style="edgeStyle=orthogonalEdgeStyle;rounded=0;orthogonalLoop=1;jettySize=auto;html=1;exitX=0.5;exitY=1;exitDx=0;exitDy=0;entryX=0.5;entryY=0;entryDx=0;entryDy=0;" edge="1" parent="WIyWlLk6GJQsqaUBKTNV-1" source="MSBUPBAipDb2ATlnMfmg-226" target="MSBUPBAipDb2ATlnMfmg-224">
          <mxGeometry relative="1" as="geometry" />
        </mxCell>
        <mxCell id="MSBUPBAipDb2ATlnMfmg-226" value="" style="ellipse;whiteSpace=wrap;html=1;aspect=fixed;" vertex="1" parent="WIyWlLk6GJQsqaUBKTNV-1">
          <mxGeometry x="538.3899999999999" y="3210" width="20" height="20" as="geometry" />
        </mxCell>
        <mxCell id="MSBUPBAipDb2ATlnMfmg-227" value="ฟังก์ชัน คำนวน" style="swimlane;whiteSpace=wrap;html=1;" vertex="1" parent="WIyWlLk6GJQsqaUBKTNV-1">
          <mxGeometry x="40" y="2370" width="720" height="1080" as="geometry" />
        </mxCell>
      </root>
    </mxGraphModel>
  </diagram>
</mxfile>
